<?xml version="1.0" encoding="UTF-8"?>
<svg id="Capa_1" data-name="Capa 1" xmlns="http://www.w3.org/2000/svg" version="1.1" viewBox="0 0 100 100">
  <defs>
    <style>
      .cls-1 {
        fill: #122d80;
        stroke-width: 0px;
      }

      .cls-2 {
        fill: none;
        stroke: #253674;
        stroke-miterlimit: 10;
        stroke-width: 2.8px;
      }
    </style>
  </defs>
  <g>
    <circle class="cls-2" cx="51.8" cy="32" r="27"/>
    <g>
      <path class="cls-1" d="M25.1,83.8h-2.2l-.3,1h-1.4l1.8-5.6h2l1.8,5.6h-1.4l-.3-1ZM24.8,82.6l-.8-2.5-.8,2.5h1.5Z"/>
      <path class="cls-1" d="M27,83.3h1.2c0,.5.5.6.7.6s.5-.1.5-.4c0-.2-.2-.3-.7-.4-1.1-.2-1.6-.5-1.6-1.3s.7-1.4,1.7-1.4c1.3,0,1.9.8,1.8,1.6h-1.1c0-.5-.5-.6-.7-.6-.2,0-.6,0-.6.4s.3.4.7.4c1.2.2,1.7.6,1.7,1.4s-.7,1.4-1.7,1.4-2-.7-2-1.6Z"/>
      <path class="cls-1" d="M35.3,82.6v.3h-2.8c0,.6.3,1,.8,1s.6,0,.7-.5h1.2c-.1,1-.9,1.6-1.9,1.6s-2.2-1-2.2-2.2.8-2.3,2.1-2.3c.9,0,2.1.5,2.1,2.2ZM32.5,82.1h1.5c0-.5-.3-.8-.7-.8s-.8.3-.8.8Z"/>
      <path class="cls-1" d="M38.9,81.2v-.6h1.2v3.6c0,1.7-.8,2.5-2.2,2.5-1.4,0-2.2-.9-2.1-1.9h1.1c0,.5.4.7.9.7s.9-.3.9-1.3v-.4c0,.2-.4.7-1.2.7-1.3,0-1.8-1-1.8-2s.6-2.2,1.8-2.2,1.1.4,1.3.7ZM37.1,82.6c0,.4.2.9.9.9s.8-.3.8-.9h0c0-.6-.3-1-.8-1s-.9.5-.9,1Z"/>
      <path class="cls-1" d="M44.7,84.8h-1.1v-.6c-.3.5-.9.7-1.3.7-.9,0-1.5-.7-1.5-1.6v-2.7h1.3v2.6c0,.5.2.7.6.7s.7-.2.7-.8v-2.4h1.3v4.2Z"/>
      <path class="cls-1" d="M47.9,81.8c-.6,0-1.2,0-1.2.9v2h-1.3v-4.2h1.1v.8c.2-.6.7-1,1.4-.9v1.3Z"/>
      <path class="cls-1" d="M48.2,83.5c0-.9.8-1.3,1.5-1.3s.7.1.9.3v-.5c0-.5-.4-.6-.6-.6s-.6.1-.6.6h-1.1c0-.7.4-1.6,1.8-1.6s1.8.6,1.8,1.7v1.5c0,.2,0,.3.3.2v.9h-.2c-.6.1-1.1-.2-1.2-.7-.2.6-.8.8-1.1.8-.8,0-1.4-.5-1.4-1.3ZM50.7,83.3c-.1-.2-.4-.3-.7-.3s-.6.1-.6.5c0,.4.4.4.6.4.3,0,.7-.1.7-.6Z"/>
      <path class="cls-1" d="M58.9,82.2v2.6h-1.3v-2.4c0-.4-.2-.7-.5-.7s-.6.2-.6.7v2.4h-1.3v-2.4c0-.4-.1-.7-.5-.7s-.6.2-.6.7v2.4h-1.3v-4.2h1.1v.6c.3-.5.9-.7,1.3-.7s.9.2,1.1.6c.2-.5.8-.6,1.1-.6,1,0,1.5.6,1.6,1.7Z"/>
      <path class="cls-1" d="M60.9,80.1h-1.4v-1.2h1.4v1.2ZM60.9,84.8h-1.3v-4.2h1.3v4.2Z"/>
      <path class="cls-1" d="M65.6,82.6v.3h-2.8c0,.6.3,1,.8,1s.6,0,.7-.5h1.2c-.1,1-.9,1.6-1.9,1.6s-2.2-1-2.2-2.2.8-2.3,2.1-2.3c.9,0,2.1.5,2.1,2.2ZM62.8,82.1h1.5c0-.5-.3-.8-.7-.8s-.8.3-.8.8Z"/>
      <path class="cls-1" d="M66.3,80.6h1.1v.7c.2-.5.8-.8,1.4-.8,1,0,1.5.7,1.5,1.7v2.7h-1.3v-2.6c0-.5-.2-.7-.6-.7s-.8.2-.8.8v2.4h-1.3v-4.2Z"/>
      <path class="cls-1" d="M73.6,83.7v1.1c-.2,0-.4,0-.6,0-1.1,0-1.8-.4-1.8-1.6v-1.6h-.6v-.7c1-.3.9-1.3.9-1.3h1.2c0,.7-.1.9-.3,1h1.2v1.1h-1.1v1.4c0,.5.2.7.7.7s.3,0,.4,0Z"/>
      <path class="cls-1" d="M73.9,82.6c0-1.3.9-2.2,2.2-2.2s2.2.9,2.2,2.2-.9,2.2-2.2,2.2-2.2-1-2.2-2.2ZM77,82.7c0-.5-.2-1.1-.9-1.1s-.9.6-.9,1.1.3,1.1.9,1.1.9-.6.9-1.1Z"/>
      <path class="cls-1" d="M35.2,88.9v6h-1.1v-.7c-.2.4-.7.8-1.3.8-1.2,0-1.9-1-1.9-2.3s.6-2.2,1.8-2.2,1.1.4,1.2.7v-2.3h1.3ZM32.2,92.8c0,.5.2,1,.9,1s.8-.5.8-1v-.2c0-.6-.4-.9-.8-.9-.6,0-.9.6-.9,1Z"/>
      <path class="cls-1" d="M40,92.7v.3h-2.8c0,.6.3,1,.8,1s.6,0,.7-.5h1.2c-.1,1-.9,1.6-1.9,1.6s-2.2-1-2.2-2.2.8-2.3,2.1-2.3c.9,0,2.1.5,2.1,2.2ZM37.2,92.2h1.5c0-.5-.3-.8-.7-.8s-.8.3-.8.8Z"/>
      <path class="cls-1" d="M42.1,92.8c0-1.2.7-2.2,2.1-2.2s1.9.6,1.9,1.7h-1.2c0-.5-.4-.6-.7-.6-.4,0-.8.3-.8,1.1s.5,1.1.9,1.1.6-.1.6-.5h1.2c0,1-.9,1.6-1.9,1.6-1.4,0-2.1-1-2.1-2.2Z"/>
      <path class="cls-1" d="M46.5,93.6c0-.9.8-1.3,1.5-1.3s.7.1.9.3v-.5c0-.5-.4-.6-.6-.6s-.6.1-.6.6h-1.1c0-.7.4-1.6,1.8-1.6s1.8.6,1.8,1.7v1.5c0,.2,0,.3.3.2v.9h-.2c-.6.1-1.1-.2-1.2-.7-.2.6-.8.8-1.1.8-.8,0-1.4-.5-1.4-1.3ZM49,93.5c-.1-.2-.4-.3-.7-.3s-.6.1-.6.5c0,.4.4.4.6.4.3,0,.7-.1.7-.6Z"/>
      <path class="cls-1" d="M52.3,94.9h-1.3v-6h1.3v6Z"/>
      <path class="cls-1" d="M54.5,90.2h-1.4v-1.2h1.4v1.2ZM54.4,94.9h-1.3v-4.2h1.3v4.2Z"/>
      <path class="cls-1" d="M59.4,88.9v6h-1.1v-.7c-.2.4-.7.8-1.3.8-1.2,0-1.9-1-1.9-2.3s.6-2.2,1.8-2.2,1.1.4,1.2.7v-2.3h1.3ZM56.4,92.8c0,.5.2,1,.9,1s.8-.5.8-1v-.2c0-.6-.4-.9-.8-.9-.6,0-.9.6-.9,1Z"/>
      <path class="cls-1" d="M60,93.6c0-.9.8-1.3,1.5-1.3s.7.1.9.3v-.5c0-.5-.4-.6-.6-.6s-.6.1-.6.6h-1.1c0-.7.4-1.6,1.8-1.6s1.8.6,1.8,1.7v1.5c0,.2,0,.3.3.2v.9h-.2c-.6.1-1.1-.2-1.2-.7-.2.6-.8.8-1.1.8-.8,0-1.4-.5-1.4-1.3ZM62.5,93.5c-.1-.2-.4-.3-.7-.3s-.6.1-.6.5c0,.4.4.4.6.4.3,0,.7-.1.7-.6Z"/>
      <path class="cls-1" d="M68.7,88.9v6h-1.1v-.7c-.2.4-.7.8-1.3.8-1.2,0-1.9-1-1.9-2.3s.6-2.2,1.8-2.2,1.1.4,1.2.7v-2.3h1.3ZM65.7,92.8c0,.5.2,1,.9,1s.8-.5.8-1v-.2c0-.6-.4-.9-.8-.9-.6,0-.9.6-.9,1Z"/>
    </g>
  </g>
  <g>
    <path class="cls-1" d="M63.5,26.5h-4.6c-.5,0-1.5-.4-2.5-.8-1.7-.7-2.4-2.9-1.3-4.4,0,0,0,0,0,0,1-1.3,1.4-4.2.7-6-.5-1.3-1.7-1.6-2.5-1.7-.5,0-1,.4-1,.9,0,1.3,0,3.7-1.1,4.9-.8.9-1.6,1.6-2,2.1-.5.4-.8,1-1,1.6-.6,1.8-2.3,5.9-4.8,6v9.8c0,1.8,1.5,3.3,3.3,3.3h13.5c1.2,0,2.2-1,2.2-2.2h0c0-.6-.2-1.1-.6-1.5,1-.2,1.8-1.1,1.8-2.2h0c0-.7-.3-1.3-.8-1.7.9-.2,1.6-1.1,1.6-2.1s-.2-1.1-.6-1.5c1-.2,1.7-1.1,1.7-2.2h0c0-1.2-1-2.2-2.2-2.2Z"/>
    <rect class="cls-1" x="35.8" y="28.7" width="6.3" height="13.1" rx="1.7" ry="1.7"/>
  </g>
</svg>