<?xml version="1.0" encoding="UTF-8"?>
<svg id="Capa_1" data-name="Capa 1" xmlns="http://www.w3.org/2000/svg" version="1.1" viewBox="0 0 100 100">
  <defs>
    <style>
      .cls-1 {
        fill: #122d80;
        stroke-width: 0px;
      }

      .cls-2 {
        fill: none;
        stroke: #253674;
        stroke-miterlimit: 10;
        stroke-width: 3.2px;
      }
    </style>
  </defs>
  <circle class="cls-2" cx="52.1" cy="35.4" r="30.4"/>
  <g>
    <path class="cls-1" d="M6.8,91.6c0-1.8,1.2-3.3,3.2-3.3s2.7,1.1,2.8,2.3h-1.6c-.1-.7-.7-.9-1.2-.9-1.2,0-1.6,1-1.6,1.9s.4,1.9,1.6,1.9,1.1-.4,1.3-.9h1.6c-.2,1.5-1.4,2.4-2.8,2.4-2.2,0-3.2-1.7-3.2-3.4Z"/>
    <path class="cls-1" d="M13.4,92.4c0-1.5,1.1-2.5,2.5-2.5s2.5,1.1,2.5,2.5-1,2.5-2.5,2.5-2.5-1.1-2.5-2.5ZM17,92.4c0-.6-.3-1.2-1-1.2s-1,.7-1,1.2.3,1.2,1,1.2,1-.6,1-1.2Z"/>
    <path class="cls-1" d="M19.2,90.1h1.3v.8c.3-.5.9-.9,1.5-.9,1.1,0,1.7.8,1.7,1.9v3h-1.5v-2.9c0-.5-.2-.7-.7-.7s-.9.2-.9.9v2.7h-1.5v-4.7Z"/>
    <path class="cls-1" d="M27.4,93.6v1.2c-.2,0-.4,0-.7,0-1.2,0-2.1-.5-2.1-1.8v-1.8h-.7v-.8c1.1-.4,1-1.4,1-1.5h1.3c0,.7-.2,1-.4,1.2h1.3v1.2h-1.2v1.6c0,.6.2.8.8.8s.3,0,.4,0Z"/>
    <path class="cls-1" d="M27.7,93.4c0-1,.9-1.4,1.7-1.4s.8.1,1,.3v-.6c0-.5-.4-.7-.6-.7s-.7.2-.7.6h-1.3c0-.8.5-1.8,2-1.8s2,.7,2,2v1.7c0,.2,0,.3.4.3v1h-.2c-.7.1-1.3-.2-1.4-.8-.2.7-.9.9-1.3.9-.9,0-1.6-.5-1.6-1.5ZM30.6,93.2c-.1-.2-.5-.4-.8-.4s-.7.2-.7.6c0,.4.5.5.7.5.3,0,.8-.2.8-.7Z"/>
    <path class="cls-1" d="M32.6,92.4c0-1.3.8-2.5,2.4-2.5s2.1.7,2.1,1.9h-1.4c0-.6-.5-.6-.7-.6-.5,0-.9.3-.9,1.3s.6,1.2,1,1.2.6-.1.7-.6h1.4c0,1.1-1,1.8-2.1,1.8-1.5,0-2.4-1.2-2.4-2.5Z"/>
    <path class="cls-1" d="M40.8,93.6v1.2c-.2,0-.4,0-.7,0-1.2,0-2.1-.5-2.1-1.8v-1.8h-.7v-.8c1.1-.4,1-1.4,1-1.5h1.3c0,.7-.2,1-.4,1.2h1.3v1.2h-1.2v1.6c0,.6.2.8.8.8s.3,0,.4,0Z"/>
    <path class="cls-1" d="M41.2,92.4c0-1.5,1.1-2.5,2.5-2.5s2.5,1.1,2.5,2.5-1,2.5-2.5,2.5-2.5-1.1-2.5-2.5ZM44.7,92.4c0-.6-.3-1.2-1-1.2s-1,.7-1,1.2.3,1.2,1,1.2,1-.6,1-1.2Z"/>
    <path class="cls-1" d="M55.3,91.7c0,1.8-1.3,3.3-3.3,3.3s-3.3-1.5-3.3-3.3,1.3-3.4,3.3-3.4,3.3,1.6,3.3,3.4ZM50.2,91.7c0,.8.5,1.9,1.7,1.9s1.7-1,1.7-1.9-.4-2-1.7-2-1.7,1.2-1.7,2Z"/>
    <path class="cls-1" d="M63,91.9v2.9h-1.5v-2.7c0-.4-.2-.7-.6-.7s-.7.2-.7.8v2.7h-1.5v-2.7c0-.5-.2-.7-.5-.7s-.7.2-.7.8v2.7h-1.5v-4.7h1.3v.7c.4-.6,1-.8,1.4-.8s1,.2,1.2.7c.3-.5.9-.7,1.3-.7,1.1,0,1.7.7,1.8,1.9Z"/>
    <path class="cls-1" d="M63.8,90.1h1.3v.8c.3-.5.9-.9,1.5-.9,1.1,0,1.7.8,1.7,1.9v3h-1.5v-2.9c0-.5-.2-.7-.7-.7s-.9.2-.9.9v2.7h-1.5v-4.7Z"/>
    <path class="cls-1" d="M70.7,89.5h-1.6v-1.4h1.6v1.4ZM70.6,94.8h-1.5v-4.7h1.5v4.7Z"/>
    <path class="cls-1" d="M71.3,92.4c0-1.3.8-2.5,2.4-2.5s2.1.7,2.1,1.9h-1.4c0-.6-.5-.6-.7-.6-.5,0-.9.3-.9,1.3s.6,1.2,1,1.2.6-.1.7-.6h1.4c0,1.1-1,1.8-2.1,1.8-1.5,0-2.4-1.2-2.4-2.5Z"/>
    <path class="cls-1" d="M76.3,93.4c0-1,.9-1.4,1.7-1.4s.8.1,1,.3v-.6c0-.5-.4-.7-.6-.7s-.7.2-.7.6h-1.3c0-.8.5-1.8,2-1.8s2,.7,2,2v1.7c0,.2,0,.3.4.3v1h-.2c-.7.1-1.3-.2-1.4-.8-.2.7-.9.9-1.3.9-.9,0-1.6-.5-1.6-1.5ZM79.1,93.2c-.1-.2-.5-.4-.8-.4s-.7.2-.7.6c0,.4.5.5.7.5.3,0,.8-.2.8-.7Z"/>
    <path class="cls-1" d="M81.4,90.1h1.3v.8c.3-.5.9-.9,1.5-.9,1.1,0,1.7.8,1.7,1.9v3h-1.5v-2.9c0-.5-.2-.7-.7-.7s-.9.2-.9.9v2.7h-1.5v-4.7Z"/>
    <path class="cls-1" d="M86.6,93.4c0-1,.9-1.4,1.7-1.4s.8.1,1,.3v-.6c0-.5-.4-.7-.6-.7s-.7.2-.7.6h-1.3c0-.8.5-1.8,2-1.8s2,.7,2,2v1.7c0,.2,0,.3.4.3v1h-.2c-.7.1-1.3-.2-1.4-.8-.2.7-.9.9-1.3.9-.9,0-1.6-.5-1.6-1.5ZM89.4,93.2c-.1-.2-.5-.4-.8-.4s-.7.2-.7.6c0,.4.5.5.7.5.3,0,.8-.2.8-.7Z"/>
    <path class="cls-1" d="M93.2,94.8h-1.5v-6.7h1.5v6.7Z"/>
  </g>
  <g>
    <path class="cls-1" d="M44,27.2c.1.1.2.2.3.3.5.4.9.8,1.1,1.3.3.5.5,1.1.7,1.7.3.9.5,1.9.5,2.9,0,.4,0,.9,0,1.3,0,0,0,0,0,0,0,.4-.1.4-.5.4-.8,0-1.7,0-2.5,0-1.2,0-2.3,0-3.5,0-.2,0-.4,0-.6,0-.2,0-.4,0-.5-.1,0,0,0-.2,0-.2,0-.6,0-1.2.1-1.8,0-.6.1-1.1.3-1.7.2-.9.5-1.7.9-2.5.3-.6.7-1.1,1.3-1.5,0,0,.1-.1.2-.2-.1,0-.2-.1-.3-.2-.3-.2-.5-.5-.7-.8-.7-1.2,0-2.8,1.2-3.3.7-.2,1.4-.1,2,.2.2,0,.4.2.5.4,1.1,1.1.7,2.5,0,3.2,0,0-.2.2-.3.3,0,0-.2.2-.3.3Z"/>
    <path class="cls-1" d="M47.3,41.4c0,.1.1.2.2.2.8.6,1.2,1.4,1.6,2.3.4,1.1.7,2.2.8,3.4,0,.5,0,1,.1,1.5,0,.1,0,.2,0,.3,0,.2-.1.3-.3.3-.2,0-.5,0-.7,0-1,0-2,0-2.9,0-1.1,0-2.1,0-3.2,0-.1,0-.2,0-.3,0-.1,0-.2,0-.2-.2,0-.2,0-.4,0-.6,0-.7.1-1.4.2-2.1.1-.9.4-1.8.8-2.7.2-.4.4-.8.6-1.1.3-.4.6-.7,1-1,0,0,.1,0,.2-.1,0-.1-.2-.2-.3-.3-.4-.3-.6-.7-.8-1.2,0-.4-.2-.7,0-1.1.1-.8.6-1.4,1.4-1.7.3-.1.6-.2.9-.2.6,0,1.1.2,1.6.7.3.3.6.7.7,1.2.2.7,0,1.4-.5,2-.1.1-.3.3-.5.4,0,0-.2.1-.3.2Z"/>
    <path class="cls-1" d="M37,41.3c0,0-.2-.1-.3-.2-.5-.4-.9-.9-1-1.6-.1-1.2.6-2.2,1.6-2.5.7-.2,1.4,0,2.1.3.4.3.7.6.8,1,.3.9.2,1.7-.4,2.4-.1.1-.3.3-.4.4,0,0-.1.1-.2.2,0,0,.1.1.2.2.6.4.9.9,1.3,1.4.3.6.6,1.2.7,1.8.3,1.3.5,2.6.6,3.9,0,.2,0,.3,0,.5,0,.1-.1.2-.3.2,0,0-.1,0-.2,0-2.2,0-4.4,0-6.5,0-.2,0-.4,0-.6-.1,0,0,0-.2,0-.3,0-1.6.2-3.1.7-4.6.2-.7.5-1.3.9-1.9.2-.3.5-.6.9-.9,0,0,.2-.1.3-.3Z"/>
  </g>
  <g>
    <g>
      <path class="cls-1" d="M71.8,49.3l-13.9-1.6,2.4-20.9,13.9,1.6-.5,4.5,1.7.2.7-6c.1-1.2-.7-2.3-2-2.5l-12.8-1.5c-1.2-.1-2.3.7-2.5,2l-3,25.9c-.1,1.2.7,2.3,2,2.5l12.8,1.5c1.2.1,2.3-.7,2.5-2l1.1-9.7-1.7-.2-.7,6.2ZM72.4,25.9c.3,0,.5.3.5.6s-.3.5-.6.5-.5-.3-.5-.6.3-.5.6-.5ZM64.5,25.2l5.9.7v.6c0,0-6-.7-6-.7v-.6ZM67.1,52.3l-5.4-.6.2-1.7,5.4.6-.2,1.7Z"/>
      <path class="cls-1" d="M64.5,41.3l1.5.2-1.9,3.4,4.8-3,8.4,1,1-8.6-12.8-1.5-1,8.6Z"/>
    </g>
    <rect class="cls-1" x="64.4" y="33.4" width="14.3" height="8.7" rx="4.4" ry="4.4" transform="translate(4.8 -7.9) rotate(6.5)"/>
  </g>
</svg>