<?xml version="1.0" encoding="UTF-8"?>
<svg id="Capa_1" data-name="Capa 1" xmlns="http://www.w3.org/2000/svg" version="1.1" viewBox="0 0 100 100">
  <defs>
    <style>
      .cls-1 {
        fill: #122d80;
      }

      .cls-1, .cls-2 {
        stroke-width: 0px;
      }

      .cls-2 {
        fill: #fff;
      }

      .cls-3 {
        fill: none;
        stroke: #253674;
        stroke-miterlimit: 10;
        stroke-width: 2.8px;
      }
    </style>
  </defs>
  <g>
    <circle class="cls-3" cx="50" cy="32.6" r="27.1"/>
    <g>
      <path class="cls-1" d="M31.8,78.6v1.2h-2.4v1h2.1v1.1h-2.1v1.1h2.5v1.2h-3.8v-5.6h3.8Z"/>
      <path class="cls-1" d="M32.6,80h1.1v.7c.2-.5.8-.8,1.4-.8,1,0,1.5.7,1.5,1.7v2.7h-1.3v-2.6c0-.5-.2-.7-.6-.7s-.8.2-.8.8v2.4h-1.3v-4.2Z"/>
      <path class="cls-1" d="M37.2,82.1c0-1.2.7-2.2,2.1-2.2s1.9.6,1.9,1.7h-1.2c0-.5-.4-.6-.7-.6-.4,0-.8.3-.8,1.1s.5,1.1.9,1.1.6-.1.6-.5h1.2c0,1-.9,1.6-1.9,1.6-1.4,0-2.1-1-2.1-2.2Z"/>
      <path class="cls-1" d="M45.7,84.2h-1.1v-.6c-.3.5-.9.7-1.3.7-.9,0-1.5-.7-1.5-1.6v-2.7h1.3v2.6c0,.5.2.7.6.7s.7-.2.7-.8v-2.4h1.3v4.2Z"/>
      <path class="cls-1" d="M50.5,82.1v.3h-2.9c0,.6.3,1,.8,1s.6,0,.7-.5h1.2c-.1,1-.9,1.6-1.9,1.6s-2.2-1-2.2-2.2.8-2.3,2.1-2.3c.9,0,2.1.5,2.1,2.2ZM47.7,81.6h1.5c0-.5-.3-.8-.7-.8s-.8.3-.8.8Z"/>
      <path class="cls-1" d="M51,82.7h1.2c0,.5.5.7.7.7s.5-.1.5-.4c0-.2-.2-.3-.7-.4-1.1-.2-1.6-.5-1.6-1.3s.7-1.4,1.8-1.4c1.3,0,1.9.8,1.9,1.6h-1.1c0-.5-.5-.6-.7-.6-.2,0-.6,0-.6.4s.3.4.7.4c1.2.2,1.7.6,1.7,1.4s-.7,1.4-1.8,1.4-2-.7-2-1.6Z"/>
      <path class="cls-1" d="M58.1,83.1v1.1c-.2,0-.4,0-.6,0-1.1,0-1.8-.4-1.8-1.6v-1.6h-.6v-.8c1-.3.9-1.3.9-1.4h1.2c0,.7-.1.9-.3,1h1.2v1.1h-1.1v1.4c0,.5.2.7.7.7s.3,0,.4,0Z"/>
      <path class="cls-1" d="M58.3,83c0-.9.8-1.3,1.5-1.3s.7.1.9.3v-.5c0-.5-.4-.6-.6-.6s-.6.1-.6.6h-1.2c0-.7.4-1.6,1.8-1.6s1.8.6,1.8,1.7v1.5c0,.2,0,.3.3.2v.9h-.2c-.6.1-1.1-.2-1.2-.7-.2.6-.8.8-1.1.8-.8,0-1.4-.5-1.4-1.3ZM60.9,82.8c-.1-.2-.4-.3-.7-.3s-.6.1-.6.5c0,.4.4.4.6.4.3,0,.7-.1.7-.6Z"/>
      <path class="cls-1" d="M68.7,78.2v6h-1.1v-.7c-.2.4-.7.8-1.3.8-1.2,0-1.9-1-1.9-2.3s.6-2.2,1.9-2.2,1.1.4,1.2.7v-2.3h1.3ZM65.8,82.1c0,.5.2,1,.9,1s.9-.5.9-1v-.2c0-.6-.4-.9-.9-.9-.7,0-.9.6-.9,1Z"/>
      <path class="cls-1" d="M73.5,82.1v.3h-2.9c0,.6.3,1,.8,1s.6,0,.7-.5h1.2c-.1,1-.9,1.6-1.9,1.6s-2.2-1-2.2-2.2.8-2.3,2.1-2.3c.9,0,2.1.5,2.1,2.2ZM70.7,81.6h1.5c0-.5-.3-.8-.7-.8s-.8.3-.8.8Z"/>
      <path class="cls-1" d="M27.9,92.9h1.2c0,.5.5.7.7.7s.5-.1.5-.4c0-.2-.2-.3-.7-.4-1.1-.2-1.6-.5-1.6-1.3s.7-1.4,1.8-1.4c1.3,0,1.9.8,1.9,1.6h-1.1c0-.5-.5-.6-.7-.6-.2,0-.6,0-.6.4s.3.4.7.4c1.2.2,1.7.6,1.7,1.4s-.7,1.4-1.8,1.4-2-.7-2-1.6Z"/>
      <path class="cls-1" d="M32.1,93.1c0-.9.8-1.3,1.5-1.3s.7.1.9.3v-.5c0-.5-.4-.6-.6-.6s-.6.1-.6.6h-1.2c0-.7.4-1.6,1.8-1.6s1.8.6,1.8,1.7v1.5c0,.2,0,.3.3.2v.9h-.2c-.6.1-1.1-.2-1.2-.7-.2.6-.8.8-1.1.8-.8,0-1.4-.5-1.4-1.3ZM34.6,92.9c-.1-.2-.4-.3-.7-.3s-.6.1-.6.5c0,.4.4.4.6.4.3,0,.7-.1.7-.6Z"/>
      <path class="cls-1" d="M39.2,93.3v1.1c-.2,0-.4,0-.6,0-1.1,0-1.8-.4-1.8-1.6v-1.6h-.6v-.8c1-.3.9-1.3.9-1.4h1.2c0,.7-.1.9-.3,1h1.2v1.1h-1.1v1.4c0,.5.2.7.7.7s.3,0,.4,0Z"/>
      <path class="cls-1" d="M41,89.6h-1.4v-1.2h1.4v1.2ZM40.9,94.4h-1.3v-4.2h1.3v4.2Z"/>
      <path class="cls-1" d="M41.5,92.9h1.2c0,.5.5.7.7.7s.5-.1.5-.4c0-.2-.2-.3-.7-.4-1.1-.2-1.6-.5-1.6-1.3s.7-1.4,1.8-1.4c1.3,0,1.9.8,1.9,1.6h-1.1c0-.5-.5-.6-.7-.6-.2,0-.6,0-.6.4s.3.4.7.4c1.2.2,1.7.6,1.7,1.4s-.7,1.4-1.8,1.4-2-.7-2-1.6Z"/>
      <path class="cls-1" d="M48.6,88.3v1.1h-.4c-.5,0-.7.1-.7.5v.3h1v1.1h-1v3.2h-1.3v-3.2h-.7v-1.1h.7v-.2c0-1.3.8-1.7,2-1.7h.3Z"/>
      <path class="cls-1" d="M48.8,93.1c0-.9.8-1.3,1.5-1.3s.7.1.9.3v-.5c0-.5-.4-.6-.6-.6s-.6.1-.6.6h-1.2c0-.7.4-1.6,1.8-1.6s1.8.6,1.8,1.7v1.5c0,.2,0,.3.3.2v.9h-.2c-.6.1-1.1-.2-1.2-.7-.2.6-.8.8-1.1.8-.8,0-1.4-.5-1.4-1.3ZM51.4,92.9c-.1-.2-.4-.3-.7-.3s-.6.1-.6.5c0,.4.4.4.6.4.3,0,.7-.1.7-.6Z"/>
      <path class="cls-1" d="M53.2,92.2c0-1.2.7-2.2,2.1-2.2s1.9.6,1.9,1.7h-1.2c0-.5-.4-.6-.7-.6-.4,0-.8.3-.8,1.1s.5,1.1.9,1.1.6-.1.6-.5h1.2c0,1-.9,1.6-1.9,1.6-1.4,0-2.1-1-2.1-2.2Z"/>
      <path class="cls-1" d="M57.7,92.2c0-1.2.7-2.2,2.1-2.2s1.9.6,1.9,1.7h-1.2c0-.5-.4-.6-.7-.6-.4,0-.8.3-.8,1.1s.5,1.1.9,1.1.6-.1.6-.5h1.2c0,1-.9,1.6-1.9,1.6-1.4,0-2.1-1-2.1-2.2Z"/>
      <path class="cls-1" d="M63.7,89.6h-1.4v-1.2h1.4v1.2ZM63.6,94.4h-1.3v-4.2h1.3v4.2Z"/>
      <path class="cls-1" d="M64.3,92.2c0-1.3.9-2.2,2.2-2.2s2.2.9,2.2,2.2-.9,2.2-2.2,2.2-2.2-1-2.2-2.2ZM67.3,87.7l.6.8-2.2,1.2-.2-.3,1.9-1.7ZM67.4,92.3c0-.5-.2-1.1-.9-1.1s-.9.6-.9,1.1.3,1.1.9,1.1.9-.6.9-1.1Z"/>
      <path class="cls-1" d="M69.4,90.1h1.1v.7c.2-.5.8-.8,1.4-.8,1,0,1.5.7,1.5,1.7v2.7h-1.3v-2.6c0-.5-.2-.7-.6-.7s-.8.2-.8.8v2.4h-1.3v-4.2Z"/>
    </g>
  </g>
  <g>
    <g>
      <circle class="cls-2" cx="43.6" cy="26.4" r="11.7"/>
      <path class="cls-1" d="M43.6,38.5c-3.2,0-6.3-1.3-8.6-3.5-2.3-2.3-3.5-5.3-3.5-8.6s1.3-6.3,3.5-8.6c2.3-2.3,5.3-3.5,8.6-3.5s6.3,1.3,8.6,3.5c2.3,2.3,3.5,5.3,3.5,8.6s-1.3,6.3-3.5,8.6c-2.3,2.3-5.3,3.5-8.6,3.5ZM43.6,15.2c-6.2,0-11.3,5.1-11.3,11.3s5.1,11.3,11.3,11.3,11.3-5.1,11.3-11.3-5.1-11.3-11.3-11.3Z"/>
    </g>
    <g>
      <g>
        <circle class="cls-1" cx="38.8" cy="24.4" r="1.2"/>
        <path class="cls-1" d="M38.8,26c-.9,0-1.7-.7-1.7-1.7s.7-1.7,1.7-1.7,1.7.7,1.7,1.7-.7,1.7-1.7,1.7ZM38.8,23.5c-.5,0-.8.4-.8.8s.4.8.8.8.8-.4.8-.8-.4-.8-.8-.8Z"/>
      </g>
      <g>
        <circle class="cls-1" cx="48.4" cy="24.4" r="1.2"/>
        <path class="cls-1" d="M48.4,26c-.9,0-1.7-.7-1.7-1.7s.7-1.7,1.7-1.7,1.7.7,1.7,1.7-.7,1.7-1.7,1.7ZM48.4,23.5c-.5,0-.8.4-.8.8s.4.8.8.8.8-.4.8-.8-.4-.8-.8-.8Z"/>
      </g>
    </g>
    <path class="cls-1" d="M43.6,33.6s0,0,0,0c-1,0-1.9-.4-2.7-1.1-.7-.7-1.1-1.7-1.2-2.7,0-.2.2-.4.4-.4.2,0,.4.2.4.4,0,1.6,1.4,3,3,3,.8,0,1.6-.3,2.2-.9.6-.6.9-1.4.9-2.2,0-.2.2-.4.4-.4h0c.2,0,.4.2.4.4,0,1.1-.4,2.1-1.2,2.8-.7.7-1.7,1.1-2.7,1.1Z"/>
    <g>
      <circle class="cls-2" cx="59.5" cy="38.1" r="11.7"/>
      <path class="cls-1" d="M59.5,50.2c-3.2,0-6.3-1.3-8.6-3.5-2.3-2.3-3.5-5.3-3.5-8.6s1.3-6.3,3.5-8.6c2.3-2.3,5.3-3.5,8.6-3.5s6.3,1.3,8.6,3.5c2.3,2.3,3.5,5.3,3.5,8.6s-1.3,6.3-3.5,8.6c-2.3,2.3-5.3,3.5-8.6,3.5ZM59.5,26.9c-6.2,0-11.3,5.1-11.3,11.3s5.1,11.3,11.3,11.3,11.3-5.1,11.3-11.3-5.1-11.3-11.3-11.3Z"/>
    </g>
    <g>
      <g>
        <circle class="cls-1" cx="54.7" cy="36" r="1.2"/>
        <path class="cls-1" d="M54.7,37.7c-.9,0-1.7-.7-1.7-1.7s.7-1.7,1.7-1.7,1.7.7,1.7,1.7-.7,1.7-1.7,1.7ZM54.7,35.2c-.5,0-.8.4-.8.8s.4.8.8.8.8-.4.8-.8-.4-.8-.8-.8Z"/>
      </g>
      <g>
        <circle class="cls-1" cx="64.3" cy="36" r="1.2"/>
        <path class="cls-1" d="M64.3,37.7c-.9,0-1.7-.7-1.7-1.7s.7-1.7,1.7-1.7,1.7.7,1.7,1.7-.7,1.7-1.7,1.7ZM64.3,35.2c-.5,0-.8.4-.8.8s.4.8.8.8.8-.4.8-.8-.4-.8-.8-.8Z"/>
      </g>
    </g>
    <path class="cls-1" d="M56,45.3c-.2,0-.4-.2-.4-.4,0-1.1.4-2.1,1.2-2.8.8-.7,1.7-1.1,2.8-1.1,1,0,1.9.4,2.7,1.1.7.7,1.1,1.7,1.2,2.7,0,.2-.2.4-.4.4-.2,0-.4-.2-.4-.4,0-1.6-1.4-3-3-3-.8,0-1.6.3-2.2.9-.6.6-.9,1.4-.9,2.2,0,.2-.2.4-.4.4h0Z"/>
  </g>
</svg>