<?xml version="1.0" encoding="UTF-8"?>
<svg id="Capa_1" data-name="Capa 1" xmlns="http://www.w3.org/2000/svg" version="1.1" viewBox="0 0 100 100">
  <defs>
    <style>
      .cls-1 {
        fill: #122d80;
        stroke-width: 0px;
      }

      .cls-2 {
        fill: none;
        stroke: #253674;
        stroke-miterlimit: 10;
        stroke-width: 3.2px;
      }
    </style>
  </defs>
  <circle class="cls-2" cx="50" cy="37.4" r="32.4"/>
  <g>
    <path class="cls-1" d="M25.7,75v1.4h-2.7v1.1h2.4v1.3h-2.4v1.2h2.8v1.4h-4.3v-6.4h4.3Z"/>
    <path class="cls-1" d="M26.7,76.6h1.3v.8c.3-.6,1-.9,1.6-.9,1.2,0,1.7.8,1.7,1.9v3h-1.5v-2.9c0-.5-.2-.8-.7-.8s-.9.2-.9,1v2.7h-1.5v-4.8Z"/>
    <path class="cls-1" d="M34.9,78c-.7,0-1.4,0-1.4,1.1v2.3h-1.5v-4.8h1.3v.9c.3-.7.8-1.1,1.6-1v1.5Z"/>
    <path class="cls-1" d="M39.9,81.4h-1.3v-.7c-.4.6-1,.8-1.5.8-1,0-1.7-.8-1.7-1.9v-3.1h1.5v2.9c0,.5.2.8.6.8s.8-.2.8-1v-2.7h1.5v4.8Z"/>
    <path class="cls-1" d="M43.9,80.2v1.2c-.2,0-.4,0-.7,0-1.3,0-2.1-.5-2.1-1.8v-1.8h-.7v-.9c1.1-.4,1-1.4,1-1.5h1.4c0,.8-.2,1-.4,1.2h1.3v1.2h-1.2v1.6c0,.6.2.8.8.8s.3,0,.5,0Z"/>
    <path class="cls-1" d="M44.2,80c0-1.1.9-1.5,1.8-1.5s.8.1,1,.3v-.6c0-.5-.4-.7-.7-.7s-.7.2-.7.7h-1.3c0-.8.5-1.8,2-1.8s2,.7,2,2v1.7c0,.2,0,.3.4.3v1h-.2c-.7.1-1.3-.2-1.4-.8-.2.7-.9.9-1.3.9-.9,0-1.6-.5-1.6-1.5ZM47.1,79.8c-.1-.2-.5-.4-.8-.4s-.7.2-.7.6c0,.4.5.5.7.5.3,0,.8-.2.8-.7Z"/>
    <path class="cls-1" d="M56.5,78.4v3h-1.5v-2.8c0-.5-.2-.8-.6-.8s-.7.2-.7.8v2.7h-1.5v-2.8c0-.5-.2-.8-.5-.8s-.7.2-.7.8v2.7h-1.5v-4.8h1.3v.7c.4-.6,1-.8,1.4-.8s1,.2,1.2.7c.3-.5,1-.7,1.3-.7,1.1,0,1.8.7,1.8,1.9Z"/>
    <path class="cls-1" d="M58.8,76h-1.6v-1.4h1.6v1.4ZM58.8,81.4h-1.5v-4.8h1.5v4.8Z"/>
    <path class="cls-1" d="M64.2,79v.3h-3.3c0,.7.4,1.1,1,1.1s.7-.1.8-.6h1.4c-.2,1.1-1,1.8-2.2,1.8s-2.5-1.1-2.5-2.5.9-2.6,2.4-2.6c1.1,0,2.4.6,2.4,2.5ZM61,78.4h1.7c0-.5-.3-.9-.8-.9s-.9.4-.9.9Z"/>
    <path class="cls-1" d="M65,76.6h1.3v.8c.3-.6,1-.9,1.6-.9,1.2,0,1.7.8,1.7,1.9v3h-1.5v-2.9c0-.5-.2-.8-.7-.8s-.9.2-.9,1v2.7h-1.5v-4.8Z"/>
    <path class="cls-1" d="M73.4,80.2v1.2c-.2,0-.4,0-.7,0-1.3,0-2.1-.5-2.1-1.8v-1.8h-.7v-.9c1.1-.4,1-1.4,1-1.5h1.4c0,.8-.2,1-.4,1.2h1.3v1.2h-1.2v1.6c0,.6.2.8.8.8s.3,0,.5,0Z"/>
    <path class="cls-1" d="M73.7,79c0-1.5,1.1-2.6,2.5-2.6s2.5,1.1,2.5,2.6-1,2.6-2.5,2.6-2.6-1.1-2.6-2.6ZM77.3,79c0-.6-.3-1.3-1-1.3s-1.1.7-1.1,1.3.3,1.2,1.1,1.2,1-.6,1-1.2Z"/>
    <path class="cls-1" d="M22.3,95v-6.8h1.3v.8c.3-.5.8-.9,1.5-.9,1.4,0,2.1,1.1,2.1,2.6s-.7,2.5-2.1,2.5-1.3-.4-1.3-.8v2.7h-1.5ZM25.7,90.6c0-.6-.3-1.2-1-1.2s-1,.5-1,1.1v.2c0,.7.5,1,1,1,.7,0,1-.6,1-1.2Z"/>
    <path class="cls-1" d="M27.9,90.6c0-1.5,1.1-2.6,2.5-2.6s2.5,1.1,2.5,2.6-1,2.6-2.5,2.6-2.6-1.1-2.6-2.6ZM31.5,90.6c0-.6-.3-1.3-1-1.3s-1.1.7-1.1,1.3.3,1.2,1.1,1.2,1-.6,1-1.2Z"/>
    <path class="cls-1" d="M36.6,89.6c-.7,0-1.4,0-1.4,1.1v2.3h-1.5v-4.8h1.3v.9c.3-.7.8-1.1,1.6-1v1.5Z"/>
    <path class="cls-1" d="M40.4,88.8c.3-.6,1-.8,1.4-.8,1.1,0,1.7.8,1.7,1.9v3h-1.5v-2.9c0-.5-.3-.8-.7-.8-.3,0-.9.3-.9,1v2.7h-1.5v-6.8h1.4v2.6Z"/>
    <path class="cls-1" d="M44.1,91.6c0-1.1.9-1.5,1.8-1.5s.8.1,1,.3v-.6c0-.5-.4-.7-.7-.7s-.7.2-.7.7h-1.3c0-.8.5-1.8,2-1.8s2,.7,2,2v1.7c0,.2,0,.3.4.3v1h-.2c-.7.1-1.3-.2-1.4-.8-.2.7-.9.9-1.3.9-.9,0-1.6-.5-1.6-1.5ZM47,91.4c-.1-.2-.5-.4-.8-.4s-.7.2-.7.6c0,.4.5.5.7.5.3,0,.8-.2.8-.7Z"/>
    <path class="cls-1" d="M50.9,88.9c0-.3.6-.8,1.3-.8,1.4,0,2.1,1.3,2.1,2.5s-.7,2.6-2.1,2.6-1.3-.4-1.4-.9v.8h-1.4v-6.8h1.5v2.7ZM50.8,90.4v.2c0,.6.4,1.1,1,1.1s1-.6,1-1.2-.3-1.2-1-1.2-1,.4-1,1Z"/>
    <path class="cls-1" d="M56.6,87.6h-1.6v-1.4h1.6v1.4ZM56.6,93h-1.5v-4.8h1.5v4.8Z"/>
    <path class="cls-1" d="M59,93h-1.5v-6.8h1.5v6.8Z"/>
    <path class="cls-1" d="M61.4,87.6h-1.6v-1.4h1.6v1.4ZM61.3,93h-1.5v-4.8h1.5v4.8Z"/>
    <path class="cls-1" d="M67,86.2v6.8h-1.3v-.8c-.3.5-.8.9-1.5.9-1.4,0-2.1-1.1-2.1-2.6s.7-2.5,2.1-2.5,1.3.5,1.3.8v-2.7h1.5ZM63.6,90.6c0,.6.3,1.2,1,1.2s1-.5,1-1.1v-.2c0-.7-.5-1-1-1-.7,0-1,.6-1,1.2Z"/>
    <path class="cls-1" d="M67.7,91.6c0-1.1.9-1.5,1.8-1.5s.8.1,1,.3v-.6c0-.5-.4-.7-.7-.7s-.7.2-.7.7h-1.3c0-.8.5-1.8,2-1.8s2,.7,2,2v1.7c0,.2,0,.3.4.3v1h-.2c-.7.1-1.3-.2-1.4-.8-.2.7-.9.9-1.3.9-.9,0-1.6-.5-1.6-1.5ZM70.6,91.4c-.1-.2-.5-.4-.8-.4s-.7.2-.7.6c0,.4.5.5.7.5.3,0,.8-.2.8-.7Z"/>
    <path class="cls-1" d="M77.7,86.2v6.8h-1.3v-.8c-.3.5-.8.9-1.5.9-1.4,0-2.1-1.1-2.1-2.6s.7-2.5,2.1-2.5,1.3.5,1.3.8v-2.7h1.5ZM74.3,90.6c0,.6.3,1.2,1,1.2s1-.5,1-1.1v-.2c0-.7-.5-1-1-1-.7,0-1,.6-1,1.2Z"/>
  </g>
  <path class="cls-1" d="M68.5,36.3h-2.1c-.2-9.2-7.6-16.6-16.8-16.8v-2.1h-.9v2.1c-9.2.2-16.6,7.6-16.8,16.8h-2.1v.9h2.1c.2,9.2,7.6,16.6,16.8,16.8v2.1h.9v-2.1c9.2-.2,16.6-7.6,16.8-16.8h2.1v-.9ZM62.8,36.3h-2.3c-.2-5.9-5-10.6-10.8-10.8v-2.3c7.2.2,12.9,6,13.2,13.2ZM47.6,36.3h-2.4c.2-1.9,1.7-3.4,3.6-3.6v2.4c-.6.2-1,.6-1.2,1.2ZM47.6,37.2c.2.6.6,1,1.2,1.2v2.4c-1.9-.2-3.4-1.7-3.6-3.6h2.4ZM49.6,38.4c.6-.2,1-.6,1.2-1.2h2.4c-.2,1.9-1.7,3.4-3.6,3.6v-2.4ZM50.8,36.3c-.2-.6-.6-1-1.2-1.2v-2.4c1.9.2,3.4,1.7,3.6,3.6h-2.4ZM48.7,30.3c-3.2.2-5.7,2.8-6,6h-2.5c.2-4.6,3.9-8.2,8.5-8.5v2.5ZM42.8,37.2c.2,3.2,2.8,5.7,6,6v2.5c-4.6-.2-8.2-3.9-8.5-8.5h2.5ZM49.6,43.2c3.2-.2,5.7-2.8,6-6h2.5c-.2,4.6-3.9,8.2-8.5,8.5v-2.5ZM55.6,36.3c-.2-3.2-2.8-5.7-6-6v-2.5c4.6.2,8.2,3.9,8.5,8.5h-2.5ZM48.7,23.1v2.3c-5.9.2-10.6,5-10.8,10.8h-2.3c.2-7.2,6-12.9,13.2-13.2ZM35.6,37.2h2.3c.2,5.9,5,10.6,10.8,10.8v2.3c-7.2-.2-12.9-6-13.2-13.2ZM49.6,50.4v-2.3c5.9-.2,10.6-5,10.8-10.8h2.3c-.2,7.2-6,12.9-13.2,13.2Z"/>
</svg>