<?xml version="1.0" encoding="UTF-8"?>
<svg id="Capa_1" data-name="Capa 1" xmlns="http://www.w3.org/2000/svg" version="1.1" viewBox="0 0 100 100">
  <defs>
    <style>
      .cls-1 {
        fill: #122d80;
        stroke-width: 0px;
      }

      .cls-2 {
        fill: none;
        stroke: #253674;
        stroke-miterlimit: 10;
        stroke-width: 3.1px;
      }
    </style>
  </defs>
  <g>
    <circle class="cls-2" cx="49.8" cy="35" r="30"/>
    <g>
      <path class="cls-1" d="M4.1,88.8v1.3H1.5v1.1h2.3v1.2H1.5v1.2h2.7v1.3H0v-6.1h4.1Z"/>
      <path class="cls-1" d="M4.8,93.2h1.3c0,.6.5.7.8.7s.6-.1.6-.4c0-.2-.2-.4-.7-.5-1.2-.2-1.8-.6-1.8-1.4s.7-1.5,1.9-1.5c1.4,0,2,.9,2,1.7h-1.2c0-.6-.5-.7-.8-.7-.2,0-.6,0-.6.4s.4.4.8.5c1.3.2,1.8.7,1.8,1.5s-.8,1.5-1.9,1.5-2.2-.7-2.2-1.8Z"/>
      <path class="cls-1" d="M12.4,93.7v1.2c-.2,0-.4,0-.6,0-1.2,0-2-.4-2-1.8v-1.7h-.6v-.8c1-.4,1-1.4,1-1.5h1.3c0,.7-.1,1-.4,1.1h1.3v1.1h-1.2v1.6c0,.6.2.7.8.7s.3,0,.4,0Z"/>
      <path class="cls-1" d="M15.6,91.6c-.6,0-1.3,0-1.3,1v2.2h-1.4v-4.6h1.2v.9c.2-.7.8-1,1.5-1v1.4Z"/>
      <path class="cls-1" d="M15.9,93.5c0-1,.9-1.4,1.7-1.4s.8.1,1,.3v-.5c0-.5-.4-.6-.6-.6s-.6.2-.6.6h-1.3c0-.8.5-1.7,1.9-1.7s1.9.7,1.9,1.9v1.6c0,.2,0,.3.3.3v1h-.2c-.6.1-1.2-.2-1.3-.8-.2.7-.9.8-1.2.8-.9,0-1.6-.5-1.6-1.5ZM18.7,93.3c-.1-.2-.4-.4-.7-.4s-.7.2-.7.5c0,.4.5.4.6.5.3,0,.8-.1.8-.6Z"/>
      <path class="cls-1" d="M23.6,93.7v1.2c-.2,0-.4,0-.6,0-1.2,0-2-.4-2-1.8v-1.7h-.6v-.8c1-.4,1-1.4,1-1.5h1.3c0,.7-.1,1-.4,1.1h1.3v1.1h-1.2v1.6c0,.6.2.7.8.7s.3,0,.4,0Z"/>
      <path class="cls-1" d="M28.4,92.5v.3h-3.1c0,.7.4,1.1.9,1.1s.7-.1.8-.6h1.3c-.2,1.1-1,1.7-2.1,1.7s-2.4-1.1-2.4-2.4.8-2.5,2.3-2.5c1,0,2.2.6,2.2,2.4ZM25.3,92h1.6c0-.5-.3-.8-.8-.8s-.8.3-.9.8Z"/>
      <path class="cls-1" d="M32.3,91v-.7h1.3v4c0,1.9-.9,2.7-2.4,2.8-1.5,0-2.4-1-2.3-2h1.3c0,.5.5.8,1,.8s1-.4,1-1.4v-.4c0,.3-.4.7-1.3.7-1.4,0-2-1.1-2-2.2s.7-2.4,2-2.4,1.2.4,1.4.8ZM30.4,92.5c0,.5.2,1,.9,1s.9-.3.9-1h0c0-.6-.3-1.1-.9-1.1s-.9.5-.9,1.1Z"/>
      <path class="cls-1" d="M35.9,89.7h-1.5v-1.4h1.5v1.4ZM35.9,94.9h-1.4v-4.6h1.4v4.6Z"/>
      <path class="cls-1" d="M36.5,93.5c0-1,.9-1.4,1.7-1.4s.8.1,1,.3v-.5c0-.5-.4-.6-.6-.6s-.6.2-.6.6h-1.3c0-.8.5-1.7,1.9-1.7s1.9.7,1.9,1.9v1.6c0,.2,0,.3.3.3v1h-.2c-.6.1-1.2-.2-1.3-.8-.2.7-.9.8-1.2.8-.9,0-1.6-.5-1.6-1.5ZM39.3,93.3c-.1-.2-.4-.4-.7-.4s-.7.2-.7.5c0,.4.5.4.6.5.3,0,.8-.1.8-.6Z"/>
      <path class="cls-1" d="M48.1,90.8c0,1.2-.8,2.1-2.1,2.1h-1.2v2h-1.5v-6.1h2.6c1.3,0,2.1.9,2.1,2ZM44.8,90.1v1.5h1c.6,0,.8-.4.8-.8,0-.3-.2-.7-.8-.7h-1Z"/>
      <path class="cls-1" d="M53,92.5v.3h-3.1c0,.7.4,1.1.9,1.1s.7-.1.8-.6h1.3c-.2,1.1-1,1.7-2.1,1.7s-2.4-1.1-2.4-2.4.8-2.5,2.3-2.5c1,0,2.2.6,2.2,2.4ZM49.9,92h1.6c0-.5-.3-.8-.8-.8s-.8.3-.9.8Z"/>
      <path class="cls-1" d="M56.4,91.6c-.6,0-1.3,0-1.3,1v2.2h-1.4v-4.6h1.2v.9c.2-.7.8-1,1.5-1v1.4Z"/>
      <path class="cls-1" d="M56.8,93.2h1.3c0,.6.5.7.8.7s.6-.1.6-.4c0-.2-.2-.4-.7-.5-1.2-.2-1.8-.6-1.8-1.4s.7-1.5,1.9-1.5c1.4,0,2,.9,2,1.7h-1.2c0-.6-.5-.7-.8-.7-.2,0-.6,0-.6.4s.4.4.8.5c1.3.2,1.8.7,1.8,1.5s-.8,1.5-1.9,1.5-2.2-.7-2.2-1.8Z"/>
      <path class="cls-1" d="M61.4,92.6c0-1.4,1-2.4,2.4-2.4s2.4,1,2.4,2.4-.9,2.4-2.4,2.4-2.4-1-2.4-2.4ZM64.8,92.6c0-.6-.2-1.2-1-1.2s-1,.6-1,1.2.3,1.2,1,1.2,1-.6,1-1.2Z"/>
      <path class="cls-1" d="M66.9,90.3h1.2v.8c.2-.5.9-.9,1.5-.9,1.1,0,1.6.7,1.6,1.8v2.9h-1.4v-2.8c0-.5-.2-.7-.6-.7s-.8.2-.8.9v2.6h-1.4v-4.6Z"/>
      <path class="cls-1" d="M71.9,93.5c0-1,.9-1.4,1.7-1.4s.8.1,1,.3v-.5c0-.5-.4-.6-.6-.6s-.6.2-.6.6h-1.3c0-.8.5-1.7,1.9-1.7s1.9.7,1.9,1.9v1.6c0,.2,0,.3.3.3v1h-.2c-.6.1-1.2-.2-1.3-.8-.2.7-.9.8-1.2.8-.9,0-1.6-.5-1.6-1.5ZM74.6,93.3c-.1-.2-.4-.4-.7-.4s-.7.2-.7.5c0,.4.5.4.6.5.3,0,.8-.1.8-.6Z"/>
      <path class="cls-1" d="M78.3,94.9h-1.5v-6.5h1.5v6.5Z"/>
      <path class="cls-1" d="M80.6,89.7h-1.5v-1.4h1.5v1.4ZM80.5,94.9h-1.4v-4.6h1.4v4.6Z"/>
      <path class="cls-1" d="M81.2,93.7l2.3-2.3h-2.2v-1.1h3.8v1.2l-2.3,2.2h2.2v1.1h-3.9v-1.2Z"/>
      <path class="cls-1" d="M85.5,93.5c0-1,.9-1.4,1.7-1.4s.8.1,1,.3v-.5c0-.5-.4-.6-.6-.6s-.6.2-.6.6h-1.3c0-.8.5-1.7,1.9-1.7s1.9.7,1.9,1.9v1.6c0,.2,0,.3.3.3v1h-.2c-.6.1-1.2-.2-1.3-.8-.2.7-.9.8-1.2.8-.9,0-1.6-.5-1.6-1.5ZM88.2,93.3c-.1-.2-.4-.4-.7-.4s-.7.2-.7.5c0,.4.5.4.6.5.3,0,.8-.1.8-.6Z"/>
      <path class="cls-1" d="M95,88.4v6.5h-1.2v-.8c-.2.5-.8.9-1.4.9-1.3,0-2-1.1-2-2.5s.7-2.4,2-2.4,1.2.4,1.3.8v-2.5h1.4ZM91.8,92.6c0,.6.3,1.1.9,1.1s.9-.5.9-1.1v-.2c0-.6-.5-1-.9-1-.7,0-.9.6-.9,1.1Z"/>
      <path class="cls-1" d="M95.7,93.5c0-1,.9-1.4,1.7-1.4s.8.1,1,.3v-.5c0-.5-.4-.6-.6-.6s-.6.2-.6.6h-1.3c0-.8.5-1.7,1.9-1.7s1.9.7,1.9,1.9v1.6c0,.2,0,.3.3.3v1h-.2c-.6.1-1.2-.2-1.3-.8-.2.7-.9.8-1.2.8-.9,0-1.6-.5-1.6-1.5ZM98.4,93.3c-.1-.2-.4-.4-.7-.4s-.7.2-.7.5c0,.4.5.4.6.5.3,0,.8-.1.8-.6Z"/>
    </g>
  </g>
  <path class="cls-1" d="M32.2,43.2c0-.3-.1-.6-.2-.9-.2-1.1,0-2.2.5-3.3.4-.8.9-1.4,1.5-2.1.4-.5.8-1,1.2-1.4.3-.4.7-.4,1.1-.1,1.3,1.1,2.7,2.2,4,3.3,1,.8,2,1.7,3,2.5.3.3.4.6,0,1-.5.7-1.1,1.3-1.7,2-.2.2-.2.4-.2.6,0,.5.3,1,.6,1.4.7,1,1.5,1.9,2.4,2.7,1,.8,2,1.6,3.2,2.1.5.2,1,.4,1.6.5.3,0,.5,0,.8-.3.5-.6,1.1-1.3,1.6-1.9.3-.3.6-.4,1,0,2.3,1.9,4.7,3.8,7,5.8.4.3.4.7,0,1-.7.8-1.4,1.7-2.1,2.5-.5.6-1.2,1.1-1.9,1.5-.8.4-1.6.5-2.4.5-1.4,0-2.7-.4-4-1-2-.9-3.8-2.1-5.6-3.3-1.7-1.2-3.3-2.6-4.9-4-1.5-1.3-2.8-2.7-4.1-4.2-.8-1-1.6-2.1-2.1-3.3-.1-.3-.2-.6-.4-.9,0,0,0,0,0-.1v-.3Z"/>
  <g>
    <path class="cls-1" d="M63,32.7c-.9-2.4-3.6-3.7-6.1-2.8-2.4.9-3.7,3.6-2.8,6.1s3.6,3.7,6.1,2.8c2.4-.9,3.7-3.6,2.8-6.1ZM55.3,35.5c-.7-1.8.2-3.7,2-4.4s3.7.2,4.4,2-.2,3.7-2,4.4c-1.8.7-3.7-.2-4.4-2Z"/>
    <path class="cls-1" d="M62.3,41.1c0,0,0-1,0-1.8.4-.3.7-.6,1-.9.8,0,1.7.2,1.8.2.1,0,.2,0,.3-.2.2-.5.7-1.5.7-1.6,0-.2,0-.3,0-.3,0,0-.7-.7-1.3-1.2,0-.4,0-.9,0-1.3.6-.5,1.4-1.1,1.4-1.1.1,0,.1-.2,0-.3l-.6-1.7c0-.2-.1-.2-.3-.2,0,0-1,0-1.8,0-.3-.4-.6-.7-.9-1,0-.8.2-1.7.2-1.8,0-.1,0-.2-.2-.3-.5-.2-1.5-.7-1.6-.7-.2,0-.3,0-.3,0,0,0-.7.7-1.2,1.3-.4,0-.9,0-1.3,0-.5-.6-1.1-1.4-1.1-1.4,0-.1-.2-.1-.3,0-.5.2-1.5.6-1.7.6s-.2.1-.2.3c0,0,0,1,0,1.8-.4.3-.7.6-1,.9-.8,0-1.7-.2-1.8-.2-.1,0-.2,0-.3.2-.2.5-.7,1.5-.7,1.6,0,.2,0,.3,0,.3,0,0,.7.7,1.3,1.2,0,.4,0,.9,0,1.3-.6.5-1.4,1.1-1.4,1.1-.1,0-.1.2,0,.3l.6,1.7c0,.2.1.2.3.2,0,0,1,0,1.8,0,.3.4.6.7.9,1,0,.8-.2,1.7-.2,1.8,0,.1,0,.2.2.3.5.2,1.5.7,1.6.7.2,0,.3,0,.3,0,0,0,.7-.7,1.2-1.3.4,0,.9,0,1.3,0,.5.6,1.1,1.4,1.1,1.4,0,.1.2.1.3,0l1.7-.6c.2,0,.2-.1.2-.3ZM53.8,36.1c-1-2.6.4-5.6,3-6.5,2.6-1,5.6.4,6.5,3,1,2.6-.4,5.6-3,6.5-2.6,1-5.6-.4-6.5-3Z"/>
  </g>
  <g>
    <path class="cls-1" d="M72.3,40.8c-.7-1.8-2.7-2.8-4.5-2.1-1.8.7-2.8,2.7-2.1,4.5s2.7,2.8,4.5,2.1c1.8-.7,2.8-2.7,2.1-4.5ZM66.6,42.9c-.5-1.3.2-2.8,1.5-3.3,1.3-.5,2.8.2,3.3,1.5s-.2,2.8-1.5,3.3-2.8-.2-3.3-1.5Z"/>
    <path class="cls-1" d="M71.8,47.1c0,0,0-.7,0-1.3.3-.2.5-.4.7-.7.6,0,1.3.2,1.3.2,0,0,.2,0,.2-.1.2-.4.5-1.1.6-1.2,0-.1,0-.2,0-.3,0,0-.5-.5-1-.9,0-.3,0-.7,0-1,.5-.4,1-.8,1.1-.8,0,0,0-.1,0-.3l-.5-1.3c0-.1-.1-.2-.2-.2,0,0-.7,0-1.3,0-.2-.3-.4-.5-.7-.7,0-.6.2-1.3.2-1.3,0,0,0-.2-.1-.2-.4-.2-1.1-.5-1.2-.6-.1,0-.2,0-.3,0,0,0-.5.5-.9,1-.3,0-.7,0-1,0-.4-.5-.8-1-.8-1.1,0,0-.1,0-.3,0l-1.3.5c-.1,0-.2.1-.2.2,0,0,0,.7,0,1.3-.3.2-.5.4-.7.7-.6,0-1.3-.2-1.3-.2,0,0-.2,0-.2.1-.2.4-.5,1.1-.6,1.2,0,.1,0,.2,0,.3,0,0,.5.5,1,.9,0,.3,0,.7,0,1-.5.4-1,.8-1.1.8,0,0,0,.1,0,.3l.5,1.3c0,.1.1.2.2.2,0,0,.7,0,1.3,0,.2.3.4.5.7.7,0,.6-.2,1.3-.2,1.3,0,0,0,.2.1.2.4.2,1.1.5,1.2.6.1,0,.2,0,.3,0,0,0,.5-.5.9-1,.3,0,.7,0,1,0,.4.5.8,1,.8,1.1,0,0,.1,0,.3,0l1.3-.5c.1,0,.2-.1.2-.2ZM65.4,43.4c-.7-2,.3-4.1,2.2-4.9,2-.7,4.1.3,4.9,2.2s-.3,4.1-2.2,4.9c-2,.7-4.1-.3-4.9-2.2Z"/>
  </g>
  <circle class="cls-1" cx="57.6" cy="17.6" r="2.5"/>
  <circle class="cls-1" cx="46.8" cy="25.8" r="2.5"/>
  <circle class="cls-1" cx="38.6" cy="22.6" r="2.5"/>
  <circle class="cls-1" cx="28.3" cy="30.9" r="2.5"/>
  <rect class="cls-1" x="28.1" y="25.7" width="11.2" height="2.1" transform="translate(-9.3 27) rotate(-38.8)"/>
  <rect class="cls-1" x="46.6" y="20.9" width="11.2" height="2.1" transform="translate(-2.3 37.5) rotate(-38.8)"/>
  <rect class="cls-1" x="39.5" y="22.9" width="6.9" height="2.1" transform="translate(76.5 60) rotate(-162)"/>
</svg>