<?xml version="1.0" encoding="UTF-8"?>
<svg id="Capa_1" data-name="Capa 1" xmlns="http://www.w3.org/2000/svg" version="1.1" viewBox="0 0 100 100">
  <defs>
    <style>
      .cls-1 {
        fill: #122d80;
      }

      .cls-1, .cls-2 {
        stroke-width: 0px;
      }

      .cls-3 {
        fill: none;
        stroke: #253674;
        stroke-miterlimit: 10;
        stroke-width: 3.2px;
      }

      .cls-2 {
        fill: #143a99;
      }
    </style>
  </defs>
  <g>
    <polygon class="cls-1" points="53.4 56.1 53.4 42.1 65.9 26.9 65.9 22 50 22 50 56.1 53.4 56.1"/>
    <polygon class="cls-2" points="34.1 26.9 46.6 42 46.6 56.1 50 56.1 50 22 34.1 22 34.1 26.9"/>
    <path class="cls-2" d="M34,16c-.9,0-1.6.7-1.6,1.6v2.3c0,.9.7,1.6,1.6,1.6h16.1v-5.5h-16.1Z"/>
    <path class="cls-1" d="M66,16h-16v5.5h16c.9,0,1.6-.7,1.6-1.6v-2.3c0-.9-.7-1.6-1.6-1.6Z"/>
  </g>
  <circle class="cls-3" cx="50" cy="36.1" r="31.1"/>
  <g>
    <path class="cls-1" d="M41,87.8h-2.8v1.3h2.6v1.4h-2.6v2.4h-1.5v-6.4h4.3v1.4Z"/>
    <path class="cls-1" d="M43.2,87.4h-1.6v-1.4h1.6v1.4ZM43.2,92.8h-1.5v-4.8h1.5v4.8Z"/>
    <path class="cls-1" d="M45.6,92.8h-1.5v-6.9h1.5v6.9Z"/>
    <path class="cls-1" d="M49.6,91.6v1.2c-.2,0-.4,0-.7,0-1.3,0-2.1-.5-2.1-1.9v-1.8h-.7v-.9c1.1-.4,1.1-1.5,1-1.6h1.4c0,.8-.2,1-.4,1.2h1.4v1.2h-1.2v1.6c0,.6.2.8.8.8s.3,0,.5,0Z"/>
    <path class="cls-1" d="M53,89.4c-.7,0-1.4,0-1.4,1.1v2.3h-1.5v-4.8h1.3v.9c.3-.7.8-1.1,1.6-1v1.5Z"/>
    <path class="cls-1" d="M53.3,90.4c0-1.5,1.1-2.6,2.6-2.6s2.6,1.1,2.6,2.6-1,2.6-2.5,2.6-2.6-1.1-2.6-2.6ZM56.9,90.4c0-.6-.3-1.3-1.1-1.3s-1.1.7-1.1,1.3.3,1.2,1.1,1.2,1.1-.6,1.1-1.2Z"/>
    <path class="cls-1" d="M59,91.1h1.4c0,.6.5.7.9.7s.6-.1.6-.5c0-.3-.2-.4-.8-.5-1.3-.2-1.9-.6-1.9-1.5s.8-1.6,2-1.6c1.5,0,2.2,1,2.1,1.8h-1.3c0-.6-.6-.7-.8-.7-.3,0-.7,0-.7.4s.4.4.8.5c1.4.3,1.9.7,1.9,1.6s-.9,1.6-2,1.6-2.3-.8-2.3-1.9Z"/>
  </g>
</svg>