<?xml version="1.0" encoding="UTF-8"?>
<svg id="Capa_1" data-name="Capa 1" xmlns="http://www.w3.org/2000/svg" version="1.1" viewBox="0 0 100 100">
  <defs>
    <style>
      .cls-1 {
        fill: #122d80;
        stroke-width: 0px;
      }

      .cls-2 {
        fill: none;
        stroke: #253674;
        stroke-miterlimit: 10;
        stroke-width: 3.2px;
      }
    </style>
  </defs>
  <circle class="cls-2" cx="50" cy="35.4" r="30.4"/>
  <g>
    <path class="cls-1" d="M23.2,86.5v4.9h2.4v1.4h-3.9v-6.3h1.5Z"/>
    <path class="cls-1" d="M27.8,87.5h-1.6v-1.4h1.6v1.4ZM27.8,92.8h-1.5v-4.7h1.5v4.7Z"/>
    <path class="cls-1" d="M28.5,91.1h1.3c0,.6.5.7.8.7s.6-.1.6-.4c0-.3-.2-.4-.8-.5-1.3-.2-1.8-.6-1.8-1.5s.8-1.5,2-1.5c1.5,0,2.1.9,2.1,1.8h-1.3c0-.6-.6-.7-.8-.7-.3,0-.7,0-.7.4s.4.4.8.5c1.4.2,1.9.7,1.9,1.6s-.8,1.5-2,1.5-2.3-.8-2.2-1.8Z"/>
    <path class="cls-1" d="M36.4,91.6v1.2c-.2,0-.4,0-.7,0-1.2,0-2.1-.5-2.1-1.8v-1.8h-.7v-.8c1.1-.4,1-1.4,1-1.5h1.3c0,.7-.2,1-.4,1.2h1.3v1.2h-1.2v1.6c0,.6.2.8.8.8s.3,0,.4,0Z"/>
    <path class="cls-1" d="M36.7,91.4c0-1,.9-1.4,1.7-1.4s.8.1,1,.3v-.6c0-.5-.4-.7-.6-.7s-.7.2-.7.6h-1.3c0-.8.5-1.8,2-1.8s2,.7,2,2v1.7c0,.2,0,.3.4.3v1h-.2c-.7.1-1.3-.2-1.4-.8-.2.7-.9.9-1.3.9-.9,0-1.6-.5-1.6-1.5ZM39.5,91.2c-.1-.2-.5-.4-.8-.4s-.7.2-.7.6c0,.4.5.5.7.5.3,0,.8-.2.8-.7Z"/>
    <path class="cls-1" d="M41.6,91.1h1.3c0,.6.5.7.8.7s.6-.1.6-.4c0-.3-.2-.4-.8-.5-1.3-.2-1.8-.6-1.8-1.5s.8-1.5,2-1.5c1.5,0,2.1.9,2.1,1.8h-1.3c0-.6-.6-.7-.8-.7-.3,0-.7,0-.7.4s.4.4.8.5c1.4.2,1.9.7,1.9,1.6s-.8,1.5-2,1.5-2.3-.8-2.2-1.8Z"/>
    <path class="cls-1" d="M48.3,86.5h2.3l2.2,4.5v-4.5h1.5v6.3h-2.1l-2.4-4.8v4.8h-1.5v-6.3Z"/>
    <path class="cls-1" d="M59.8,90.4v.3h-3.2c0,.7.4,1.1.9,1.1s.7-.1.8-.6h1.4c-.2,1.1-1,1.8-2.1,1.8s-2.4-1.1-2.4-2.5.9-2.5,2.3-2.5c1.1,0,2.3.6,2.3,2.5ZM56.6,89.8h1.7c0-.5-.3-.9-.8-.9s-.9.4-.9.9Z"/>
    <path class="cls-1" d="M63.9,88.8v-.7h1.4v4.1c0,1.9-.9,2.8-2.4,2.9-1.6,0-2.4-1-2.4-2.1h1.3c0,.6.5.8,1,.8s1.1-.4,1-1.5v-.4c0,.3-.4.8-1.3.8-1.5,0-2.1-1.1-2.1-2.2s.7-2.5,2.1-2.5,1.3.4,1.4.8ZM61.9,90.3c0,.5.2,1.1,1,1.1s.9-.3.9-1h0c0-.7-.3-1.1-.9-1.1s-1,.5-1,1.1Z"/>
    <path class="cls-1" d="M68.9,89.5c-.6,0-1.3,0-1.3,1.1v2.3h-1.5v-4.7h1.3v.9c.3-.7.8-1.1,1.6-1v1.5Z"/>
    <path class="cls-1" d="M69.2,91.4c0-1,.9-1.4,1.7-1.4s.8.1,1,.3v-.6c0-.5-.4-.7-.6-.7s-.7.2-.7.6h-1.3c0-.8.5-1.8,2-1.8s2,.7,2,2v1.7c0,.2,0,.3.4.3v1h-.2c-.7.1-1.3-.2-1.4-.8-.2.7-.9.9-1.3.9-.9,0-1.6-.5-1.6-1.5ZM72,91.2c-.1-.2-.5-.4-.8-.4s-.7.2-.7.6c0,.4.5.5.7.5.3,0,.8-.2.8-.7Z"/>
    <path class="cls-1" d="M74.1,91.1h1.3c0,.6.5.7.8.7s.6-.1.6-.4c0-.3-.2-.4-.8-.5-1.3-.2-1.8-.6-1.8-1.5s.8-1.5,2-1.5c1.5,0,2.1.9,2.1,1.8h-1.3c0-.6-.6-.7-.8-.7-.3,0-.7,0-.7.4s.4.4.8.5c1.4.2,1.9.7,1.9,1.6s-.8,1.5-2,1.5-2.3-.8-2.2-1.8Z"/>
  </g>
  <path class="cls-1" d="M54.8,28.3c-10.2,5.6-12.4,16.3-4.2,25.2-3.5,0-6.6.1-9.7-.1-.6,0-1.4-1.5-1.5-2.3-.2-3.9,0-7.7,0-11.6,0-1,0-2.1-.2-3.1-.2,0-.5,0-.7,0-.1.8-.3,1.5-.3,2.3,0,2.7.2,5.4-.2,8-.1.9-1.6,2.3-2.4,2.3-.9,0-2.5-1.3-2.6-2.1-.2-4.7-.2-9.5.2-14.2.2-2.6,2.2-4.2,5-4.2,5.2,0,10.5,0,16.6,0Z"/>
  <path class="cls-1" d="M70.4,42c0,6.4-4.9,11.3-11.3,11.3-6.2,0-11.3-5.1-11.4-11.3,0-6.4,5.1-11.5,11.6-11.4,6.4,0,11.1,4.9,11.1,11.4ZM54.9,34.6c4,4,7.9,7.9,11.7,11.7,2.2-3,1.9-7.2-.9-10.2-2.9-3.2-7.2-3.7-10.8-1.5ZM64.1,48.9c-3.7-3.7-7.3-7.2-10.9-10.7-.3-.3-.8-.5-1.2-.8-2.4,3.8-2,8.1.9,11,2.9,2.8,8.2,3.6,11.1.6Z"/>
  <path class="cls-1" d="M53.7,19.3c0,4.1-2.9,7.1-7.1,7.2-4,0-7.2-3.2-7.1-7.2,0-3.8,3.1-6.9,7-7,4.1,0,7.2,2.9,7.2,7Z"/>
</svg>