<?xml version="1.0" encoding="UTF-8"?>
<svg id="Capa_1" data-name="Capa 1" xmlns="http://www.w3.org/2000/svg" version="1.1" viewBox="0 0 100 100">
  <defs>
    <style>
      .cls-1 {
        fill: #122d80;
        stroke-width: 0px;
      }

      .cls-2 {
        fill: none;
        stroke: #253674;
        stroke-miterlimit: 10;
        stroke-width: 2.8px;
      }
    </style>
  </defs>
  <circle class="cls-2" cx="50" cy="32.1" r="26.6"/>
  <g>
    <path class="cls-1" d="M25.5,77.3h2l1.1,2.8,1.2-2.8h2v5.5h-1.3v-4c0,0-1.1,2.6-1.1,2.6h-1.4l-1.1-2.6v4h-1.3v-5.5Z"/>
    <path class="cls-1" d="M32.4,80.7c0-1.3.9-2.2,2.2-2.2s2.2.9,2.2,2.2-.9,2.2-2.2,2.2-2.2-.9-2.2-2.2ZM35.5,80.7c0-.5-.2-1.1-.9-1.1s-.9.6-.9,1.1.3,1,.9,1,.9-.6.9-1Z"/>
    <path class="cls-1" d="M37.4,78.7h1.1v.7c.2-.5.8-.8,1.3-.8,1,0,1.5.7,1.5,1.6v2.6h-1.3v-2.5c0-.4-.2-.7-.6-.7s-.8.2-.8.8v2.3h-1.3v-4.2Z"/>
    <path class="cls-1" d="M43.4,78.2h-1.4v-1.2h1.4v1.2ZM43.4,82.8h-1.3v-4.2h1.3v4.2Z"/>
    <path class="cls-1" d="M46.8,81.8v1.1c-.1,0-.4,0-.6,0-1.1,0-1.8-.4-1.8-1.6v-1.6h-.6v-.7c.9-.3.9-1.2.9-1.3h1.2c0,.6-.1.9-.3,1h1.2v1h-1v1.4c0,.5.2.7.7.7s.3,0,.4,0Z"/>
    <path class="cls-1" d="M47.1,80.7c0-1.3.9-2.2,2.2-2.2s2.2.9,2.2,2.2-.9,2.2-2.2,2.2-2.2-.9-2.2-2.2ZM50.2,80.7c0-.5-.2-1.1-.9-1.1s-.9.6-.9,1.1.3,1,.9,1,.9-.6.9-1Z"/>
    <path class="cls-1" d="M54.6,79.9c-.6,0-1.2,0-1.2.9v2h-1.3v-4.2h1.1v.8c.2-.6.7-.9,1.4-.9v1.3Z"/>
    <path class="cls-1" d="M58.9,80.7v.3h-2.8c0,.6.3,1,.8,1s.6,0,.7-.5h1.2c-.1,1-.9,1.5-1.9,1.5s-2.1-1-2.1-2.2.8-2.2,2.1-2.2c.9,0,2,.5,2,2.2ZM56.1,80.2h1.5c0-.4-.3-.7-.7-.7s-.7.3-.8.7Z"/>
    <path class="cls-1" d="M59.4,80.7c0-1.3.9-2.2,2.2-2.2s2.2.9,2.2,2.2-.9,2.2-2.2,2.2-2.2-.9-2.2-2.2ZM62.5,80.7c0-.5-.2-1.1-.9-1.1s-.9.6-.9,1.1.3,1,.9,1,.9-.6.9-1Z"/>
    <path class="cls-1" d="M70,80.7v.3h-2.8c0,.6.3,1,.8,1s.6,0,.7-.5h1.2c-.1,1-.9,1.5-1.9,1.5s-2.1-1-2.1-2.2.8-2.2,2.1-2.2c.9,0,2,.5,2,2.2ZM67.2,80.2h1.5c0-.4-.3-.7-.7-.7s-.7.3-.8.7Z"/>
    <path class="cls-1" d="M70.6,78.7h1.1v.7c.2-.5.8-.8,1.3-.8,1,0,1.5.7,1.5,1.6v2.6h-1.3v-2.5c0-.4-.2-.7-.6-.7s-.8.2-.8.8v2.3h-1.3v-4.2Z"/>
    <path class="cls-1" d="M32.1,91.7v1.1c-.1,0-.4,0-.6,0-1.1,0-1.8-.4-1.8-1.6v-1.6h-.6v-.7c.9-.3.9-1.2.9-1.3h1.2c0,.6-.1.9-.3,1h1.2v1h-1v1.4c0,.5.2.7.7.7s.3,0,.4,0Z"/>
    <path class="cls-1" d="M33.8,88.1h-1.4v-1.2h1.4v1.2ZM33.8,92.8h-1.3v-4.2h1.3v4.2Z"/>
    <path class="cls-1" d="M38.5,90.7v.3h-2.8c0,.6.3,1,.8,1s.6,0,.7-.5h1.2c-.1,1-.9,1.5-1.9,1.5s-2.1-1-2.1-2.2.8-2.2,2.1-2.2c.9,0,2,.5,2,2.2ZM35.7,90.2h1.5c0-.4-.3-.7-.7-.7s-.7.3-.8.7Z"/>
    <path class="cls-1" d="M45.2,90.2v2.6h-1.3v-2.4c0-.4-.1-.7-.5-.7s-.6.2-.6.7v2.4h-1.3v-2.4c0-.4-.1-.6-.5-.6s-.6.2-.6.7v2.4h-1.3v-4.2h1.1v.6c.3-.5.9-.7,1.2-.7s.9.2,1.1.6c.2-.5.8-.6,1.1-.6,1,0,1.5.6,1.5,1.7Z"/>
    <path class="cls-1" d="M45.9,94.5v-5.9h1.1v.7c.2-.4.7-.8,1.3-.8,1.2,0,1.8,1,1.8,2.2s-.6,2.1-1.8,2.1-1.1-.4-1.2-.7v2.3h-1.3ZM48.9,90.7c0-.5-.2-1-.9-1s-.8.5-.8,1v.2c0,.6.4.9.8.9.6,0,.9-.6.9-1Z"/>
    <path class="cls-1" d="M50.8,90.7c0-1.3.9-2.2,2.2-2.2s2.2.9,2.2,2.2-.9,2.2-2.2,2.2-2.2-.9-2.2-2.2ZM53.9,90.7c0-.5-.2-1.1-.9-1.1s-.9.6-.9,1.1.3,1,.9,1,.9-.6.9-1Z"/>
    <path class="cls-1" d="M59.8,89.9c-.6,0-1.2,0-1.2.9v2h-1.3v-4.2h1.1v.8c.2-.6.7-.9,1.4-.9v1.3Z"/>
    <path class="cls-1" d="M64.2,90.7v.3h-2.8c0,.6.3,1,.8,1s.6,0,.7-.5h1.2c-.1,1-.9,1.5-1.9,1.5s-2.1-1-2.1-2.2.8-2.2,2.1-2.2c.9,0,2,.5,2,2.2ZM61.4,90.2h1.5c0-.4-.3-.7-.7-.7s-.7.3-.8.7Z"/>
    <path class="cls-1" d="M64.7,91.6c0-.9.8-1.3,1.5-1.3s.7,0,.9.3v-.5c0-.5-.3-.6-.6-.6s-.6.1-.6.6h-1.1c0-.7.4-1.6,1.7-1.6s1.8.6,1.8,1.7v1.5c0,.2,0,.3.3.2v.9h-.2c-.6,0-1.1-.2-1.2-.7-.2.6-.8.8-1.1.8-.8,0-1.4-.5-1.4-1.3ZM67.1,91.4c-.1-.2-.4-.3-.7-.3s-.6.1-.6.5c0,.4.4.4.6.4.3,0,.7-.1.7-.6Z"/>
    <path class="cls-1" d="M70.5,92.8h-1.3v-5.9h1.3v5.9Z"/>
  </g>
  <path class="cls-1" d="M67.9,19.8c0-1.2-.9-2.2-2.2-2.2-5.2,0-10.3,0-15.5,0h0c-5.2,0-10.4,0-15.6,0-1.3,0-2.1,1.1-2.1,2.1,0,6.7,0,13.4,0,20.1,0,1.3.8,2.1,2.1,2.1,3.9,0,7.9,0,11.8,0,0,0,.2,0,.3,0,0,0,.1,0,.1.1-.2.5-.6,1.3-1.3,1.3-.4,0-.7,0-1.1,0-.1,0-.2,0-.2.2,0,.2,0,.4,0,.6,0,.4,0,.4.4.4,2.8,0,5.5,0,8.3,0,1.1,0,2.2,0,3.2,0,.2,0,.3,0,.3-.3,0-.2,0-.5,0-.7,0-.2,0-.2-.2-.2-.3,0-.5,0-.8,0-.9,0-1.4-.4-1.7-1.2,0-.2,0-.2.1-.2,0,0,.2,0,.3,0,3.9,0,7.8,0,11.8,0,1.3,0,2.1-1,2.1-2.1,0-3.4,0-6.8,0-10.1,0-3.3,0-6.6,0-9.9ZM52.6,43.3c-1.1,0-2.2,0-3.4,0-.6,0-1.2,0-1.8,0,.3-.4.5-.8.6-1.2,0-.1.1-.2.3-.2,1.3,0,2.5,0,3.8,0,.2,0,.2,0,.3.2,0,.3.2.7.4,1,.1.2,0,.2-.1.2ZM66.7,39.7c0,.8-.3,1-1,1-8,0-16,0-24,0-2.4,0-4.7,0-7.1,0-.7,0-.9-.2-.9-.9,0-1,0-2,0-2.9,0-.3,0-.3.3-.3,5.4,0,10.8,0,16.2,0h0c5.4,0,10.8,0,16.2,0,.3,0,.3,0,.3.3,0,.9,0,1.9,0,2.8ZM36.1,21.8q0-.4.4-.4c4.6,0,9.1,0,13.7,0h0c4.6,0,9.1,0,13.7,0,.3,0,.4,0,.4.4,0,4.4,0,8.8,0,13.2q0,.4-.4.4c-9.1,0-18.2,0-27.3,0-.5,0-.4,0-.4-.4,0-4.4,0-8.8,0-13.2ZM66.4,35.4c-.2,0-.5,0-.7,0-.2,0-.3,0-.3-.3,0-.5,0-1,0-1.5,0-4.3,0-8.5,0-12.8,0-.5,0-.6-.6-.6-7.3,0-14.7,0-22,0-2.4,0-4.8,0-7.2,0,0,0-.2,0-.3,0-.3,0-.4.1-.4.4,0,.4,0,.9,0,1.3,0,4.3,0,8.7,0,13q0,.4-.4.4c-.2,0-.4,0-.6,0-.3,0-.4,0-.3-.3,0-2.1,0-4.2,0-6.3,0-2.9,0-5.7,0-8.6,0-1,.2-1.3,1.3-1.3,5.1,0,10.1,0,15.2,0h0c5.2,0,10.3,0,15.5,0,.7,0,1,.3,1,1,0,5.1,0,10.1,0,15.2,0,.2,0,.4-.3.3Z"/>
  <path class="cls-1" d="M64.4,38.3c0-.2,0-.3-.2-.3-.6,0-1.3,0-1.9,0-.2,0-.2,0-.2.2,0,.2,0,.5,0,.7,0,.2,0,.2.2.2.3,0,.7,0,1,0h0c.3,0,.6,0,1,0,.2,0,.3,0,.3-.3,0-.2,0-.4,0-.6Z"/>
  <path class="cls-1" d="M59.8,38s0,0-.1,0q-.5,0-.5.5t.7.7.6-.6-.6-.6Z"/>
  <path class="cls-1" d="M57,38q-.5,0-.5.5t.6.6.6-.5-.7-.7Z"/>
  <path class="cls-1" d="M49.2,38q-.6,0-.6.6t.6.6s0,0,0,0q.6,0,.6-.6t-.7-.6Z"/>
  <circle class="cls-1" cx="57.3" cy="24.7" r="1.3"/>
  <circle class="cls-1" cx="52" cy="28.7" r="1.3"/>
  <circle class="cls-1" cx="47.9" cy="27.1" r="1.3"/>
  <circle class="cls-1" cx="42.9" cy="31.2" r="1.3"/>
  <rect class="cls-1" x="42.8" y="28.7" width="5.5" height="1" transform="translate(-8.2 34.9) rotate(-38.8)"/>
  <rect class="cls-1" x="51.9" y="26.3" width="5.5" height="1" transform="translate(-4.8 40.1) rotate(-38.8)"/>
  <rect class="cls-1" x="48.4" y="27.3" width="3.4" height="1" transform="translate(89.2 69.7) rotate(-162)"/>
</svg>