<?xml version="1.0" encoding="UTF-8"?>
<svg id="Capa_1" data-name="Capa 1" xmlns="http://www.w3.org/2000/svg" viewBox="0 0 200 200">
  <defs>
    <style>
      .cls-1 {
        fill: #122d80;
      }

      .cls-1, .cls-2, .cls-3 {
        stroke-width: 0px;
      }

      .cls-4 {
        stroke: #253674;
        stroke-miterlimit: 10;
        stroke-width: 6.58px;
      }

      .cls-4, .cls-5, .cls-6 {
        fill: none;
      }

      .cls-5, .cls-7, .cls-6, .cls-8 {
        stroke-linecap: round;
        stroke-linejoin: round;
      }

      .cls-5, .cls-8 {
        stroke: #fff;
        stroke-width: .82px;
      }

      .cls-7 {
        stroke-width: 1.23px;
      }

      .cls-7, .cls-6 {
        stroke: #122d80;
      }

      .cls-7, .cls-2, .cls-8 {
        fill: #fff;
      }

      .cls-6 {
        stroke-width: .41px;
      }

      .cls-3 {
        fill: #e9ca4d;
      }
    </style>
  </defs>
  <g>
    <circle class="cls-4" cx="100" cy="73.82" r="66.35"/>
    <g>
      <path class="cls-1" d="M111.26,46.77c3.46,3.82,3.46,9.43,3.26,11.88h-1.56c-1.07-3.48-2.5-5.75-4.28-6.77-.25-.14-.56-.14-.8.01-.03.01-2.54,1.54-6.36,1.68-3.8-.14-6.34-1.67-6.36-1.68-.25-.15-.55-.16-.8-.01-1.78,1.02-3.22,3.29-4.28,6.77h-1.51c-.18-2.46-.12-8.05,3.38-11.88,2.24-2.45,5.5-3.66,9.68-3.57h.03c4.18-.08,7.41,1.11,9.62,3.56Z"/>
      <path class="cls-1" d="M89.58,66.68h-1.63c-.9,0-1.63-.73-1.63-1.63v-3.19c0-.81.81-1.63,1.63-1.63h1.63v6.45Z"/>
      <path class="cls-1" d="M113.43,60.23h1.63c.89,0,1.63.73,1.63,1.63v3.19c0,.9-.73,1.63-1.63,1.63h-1.63v-6.45Z"/>
      <path class="cls-1" d="M104.28,71.2v.26c0,.44-.36.79-.79.79s-.8-.36-.8-.79v-.65c0-.44.36-.79.8-.79s.79.36.79.79v.4Z"/>
      <path class="cls-1" d="M106.19,74.81c-1.42.8-3.01,1.24-4.68,1.24h0c-1.71,0-3.32-.45-4.76-1.28-2.49-1.44-4.49-4.03-5.59-7.44v-6.73c.88-3.53,2.16-6.03,3.61-7.11.96.49,3.39,1.55,6.71,1.67.02,0,.04,0,.06,0,3.32-.12,5.75-1.18,6.71-1.67,1.46,1.08,2.73,3.57,3.61,7.11v6.72c-.36,1.12-.82,2.15-1.36,3.09h-4.68c-.19-1.11-1.16-1.97-2.34-1.97-1.31,0-2.37,1.06-2.37,2.37v.65c0,1.31,1.06,2.37,2.37,2.37,1.13,0,2.07-.79,2.31-1.84h3.64c-.89,1.12-1.92,2.04-3.06,2.71l-.18.11Z"/>
      <path class="cls-1" d="M97.14,76.71c1.39.6,2.86.91,4.37.91h0c1.51,0,2.99-.31,4.37-.91v4.17c0,2.17-1.96,3.93-4.37,3.93s-4.37-1.77-4.37-3.93v-4.17Z"/>
      <path class="cls-1" d="M123.78,88.76l2.79,20.55h-8.68v-14.77c0-.44-.35-.79-.79-.79s-.79.35-.79.79v14.77h-29.62v-14.77c0-.44-.35-.79-.79-.79s-.79.35-.79.79v14.77h-8.68l2.79-20.55c.58-4.24,3.8-7.21,7.84-7.21h8.54c.36,2.72,2.87,4.83,5.9,4.83s5.54-2.11,5.9-4.83h8.54c4.04,0,7.26,2.96,7.83,7.21Z"/>
      <path class="cls-1" d="M115.85,68.16v3.02c0,.44-.35.79-.79.79h-3.69c.33-.49.64-1.02.92-1.57h1.99v-2.14h.79c.27,0,.54-.04.79-.1Z"/>
    </g>
    <g>
      <rect class="cls-1" x="136.31" y="63.37" width="21.53" height="21.53" rx="2.66" ry="2.66" transform="translate(27.65 187.55) rotate(-70.27)"/>
      <g>
        <path class="cls-3" d="M153.27,83.79l5.47-15.25c.5-1.38-.22-2.91-1.61-3.4l-15.25-5.47c-1.38-.5-2.91.22-3.4,1.61l-5.47,15.25c-.5,1.38.22,2.91,1.61,3.4l15.25,5.47c1.38.5,2.91-.22,3.4-1.61Z"/>
        <path class="cls-2" d="M147.47,69.62l-.4,1.15,2.4.84-1.86,2.54-1.53-.53-2.38,6.83-3.06-1.06,2.38-6.83-1.24-.43.99-2.84,1.24.43.4-1.15c.82-2.35,3.54-3.55,6.07-2.67l1.89.66-.99,2.84-1.89-.66c-.84-.29-1.75.11-2.02.89Z"/>
      </g>
    </g>
    <g>
      <circle class="cls-3" cx="56.46" cy="74.57" r="12.99" transform="translate(-1.8 1.39) rotate(-1.39)"/>
      <g>
        <circle class="cls-1" cx="54.81" cy="73.33" r="12.99"/>
        <g>
          <path class="cls-2" d="M56.34,82.11c.55.27,1.23.28,1.8.07.42-.16.75-.47,1.08-.77.49-.46,1.01-.98,1.06-1.64.08-1.05-1.01-1.77-1.96-2.24-.36-.18-.78-.36-1.13-.17-.18.1-.3.28-.47.42-.65.53-1.62.03-2.25-.53-.59-.53-1.11-1.13-1.57-1.78l-.52-.85c-.4-.74-.65-1.8.02-2.31.17-.13.37-.2.52-.35.27-.29.2-.75.11-1.14-.23-1.03-.67-2.26-1.71-2.44-.66-.11-1.29.27-1.85.64-.37.24-.76.5-1.01.87-.35.5-.4,1.15-.36,1.76,0,0,.29,6.64,8.23,10.47Z"/>
          <path class="cls-2" d="M57.95,66.32c-.89-1.54-2.32-2.65-4.04-3.11-.09-.03-.19.03-.22.12l-.33,1.23s0,.09.02.13c.02.04.06.07.11.08,2.68.72,4.27,3.48,3.55,6.16-.01.05,0,.09.02.13.02.04.06.07.1.08,0,0,0,0,0,0l1.23.33c.09.03.19-.03.22-.12.46-1.71.22-3.51-.66-5.05Z"/>
          <path class="cls-2" d="M53.25,65.69c-.09-.03-.19.03-.22.12l-.33,1.23s0,.09.02.13c.02.04.06.07.11.08.63.17,1.17.58,1.5,1.15.33.57.42,1.24.25,1.87-.01.05,0,.09.02.13.02.04.06.07.1.08,0,0,0,0,0,0l1.23.33s.09,0,.13-.02.07-.06.08-.11c.59-2.18-.71-4.43-2.9-5.02Z"/>
        </g>
      </g>
    </g>
    <g>
      <rect class="cls-3" x="117.44" y="36.06" width="19.94" height="19.94" rx="9.97" ry="9.97"/>
      <path class="cls-1" d="M126.73,55.55h0c-5.51,0-9.97-4.46-9.97-9.97h0c0-5.51,4.46-9.97,9.97-9.97h0c5.51,0,9.97,4.46,9.97,9.97h0c0,5.51-4.46,9.97-9.97,9.97Z"/>
      <g>
        <path class="cls-2" d="M131.13,52.12h-8.8c-1.18,0-2.14-.96-2.14-2.14v-8.8c0-1.18.96-2.14,2.14-2.14h8.8c1.18,0,2.14.96,2.14,2.14v8.8c0,1.18-.96,2.14-2.14,2.14ZM122.33,40.17c-.56,0-1.02.46-1.02,1.02v8.8c0,.56.46,1.02,1.02,1.02h8.8c.56,0,1.02-.46,1.02-1.02v-8.8c0-.56-.46-1.02-1.02-1.02h-8.8Z"/>
        <path class="cls-2" d="M126.83,49.29c-1.96,0-3.56-1.6-3.56-3.56s1.6-3.56,3.56-3.56,3.56,1.6,3.56,3.56-1.6,3.56-3.56,3.56ZM126.83,43.29c-1.35,0-2.44,1.1-2.44,2.44s1.1,2.44,2.44,2.44,2.44-1.1,2.44-2.44-1.1-2.44-2.44-2.44Z"/>
        <path class="cls-2" d="M130.37,42.56c-.43,0-.78-.35-.78-.78s.35-.78.78-.78.78.35.78.78-.35.78-.78.78Z"/>
      </g>
    </g>
    <g>
      <rect class="cls-1" x="63.79" y="35.99" width="19.94" height="19.94" rx="9.97" ry="9.97"/>
      <path class="cls-3" d="M73.09,55.48h0c-5.51,0-9.97-4.46-9.97-9.97h0c0-5.51,4.46-9.97,9.97-9.97h0c5.51,0,9.97,4.46,9.97,9.97h0c0,5.51-4.46,9.97-9.97,9.97Z"/>
    </g>
    <g>
      <rect class="cls-5" x="67.66" y="41.68" width="12.2" height="7.87"/>
      <polyline class="cls-5" points="67.66 49.55 73.76 44.09 79.86 49.55"/>
      <polygon class="cls-7" points="67.66 41.68 73.76 47.3 79.86 41.68 67.66 41.68"/>
      <polygon class="cls-8" points="67.66 40.88 73.76 46.5 79.86 40.88 73.76 36.06 67.66 40.88"/>
      <path class="cls-2" d="M78.29,43.05v-3.62c0-.31-.25-.56-.56-.56h-7.95c-.31,0-.56.25-.56.56v3.62l4.53,4.26,4.53-4.26Z"/>
      <g>
        <line class="cls-6" x1="70.35" y1="40.16" x2="74.62" y2="40.16"/>
        <line class="cls-6" x1="70.35" y1="41.28" x2="77.17" y2="41.28"/>
        <line class="cls-6" x1="70.35" y1="42.4" x2="77.17" y2="42.4"/>
      </g>
    </g>
  </g>
  <g>
    <path class="cls-1" d="M48.23,185.62c0,3.73-2.74,6.91-6.93,6.91s-6.95-3.18-6.95-6.91,2.65-7.05,6.95-7.05,6.93,3.32,6.93,7.05ZM37.7,185.68c0,1.76,1.15,3.87,3.59,3.87s3.55-2.11,3.55-3.87-.89-4.13-3.55-4.13-3.59,2.41-3.59,4.13Z"/>
    <path class="cls-1" d="M64.32,185.97v6.14h-3.1v-5.69c0-.93-.36-1.56-1.15-1.56s-1.44.49-1.44,1.62v5.63h-3.1v-5.69c0-.99-.32-1.54-1.11-1.54-.85,0-1.5.47-1.5,1.6v5.63h-3.08v-9.87h2.69l.2,1.38c.57-1.2,1.84-1.62,2.76-1.62,1.17,0,2.13.49,2.51,1.4.57-1.11,1.97-1.4,2.65-1.4,2.29,0,3.63,1.42,3.67,3.97Z"/>
    <path class="cls-1" d="M66,182.24h2.65l.18,1.66c.36-1.15,1.78-1.92,3-1.92,2.39,0,3.55,1.58,3.55,3.89v6.24h-3.1v-5.98c0-1.07-.49-1.56-1.36-1.56-.77,0-1.82.45-1.82,1.97v5.57h-3.1v-9.87Z"/>
    <path class="cls-1" d="M80.27,181.06h-3.34v-2.92h3.34v2.92ZM80.16,192.11h-3.1v-9.87h3.1v9.87Z"/>
    <path class="cls-1" d="M81.64,187.16c0-2.8,1.7-5.23,4.98-5.23,2.39,0,4.42,1.46,4.46,3.91h-2.9c-.18-1.14-1.03-1.32-1.56-1.32-.95,0-1.92.67-1.92,2.67,0,2.19,1.24,2.59,2.01,2.59.55,0,1.32-.28,1.5-1.18h2.9c-.16,2.39-2.05,3.83-4.46,3.81-3.2-.02-5.02-2.45-5.02-5.23Z"/>
    <path class="cls-1" d="M92.04,189.19c0-2.17,1.86-3,3.61-3,.87,0,1.64.24,2.09.69v-1.18c0-1.13-.83-1.36-1.34-1.36-.65,0-1.36.34-1.36,1.34h-2.71c-.18-1.74,1.01-3.75,4.15-3.75,2.57,0,4.19,1.48,4.19,4.09v3.48c0,.41.2.69.73.57v2.13l-.47.08c-1.38.16-2.69-.47-2.86-1.74-.41,1.46-1.84,1.8-2.65,1.8-1.84,0-3.38-1.12-3.38-3.14ZM97.93,188.76c-.3-.47-.95-.77-1.6-.77-.77,0-1.5.34-1.5,1.15.02.87.99.97,1.38.99.67,0,1.66-.32,1.72-1.36Z"/>
    <path class="cls-1" d="M102.73,182.24h2.65l.18,1.66c.36-1.15,1.78-1.92,3-1.92,2.39,0,3.55,1.58,3.55,3.89v6.24h-3.1v-5.98c0-1.07-.49-1.56-1.36-1.56-.77,0-1.82.45-1.82,1.97v5.57h-3.1v-9.87Z"/>
    <path class="cls-1" d="M113.43,189.19c0-2.17,1.86-3,3.61-3,.87,0,1.64.24,2.09.69v-1.18c0-1.13-.83-1.36-1.34-1.36-.65,0-1.36.34-1.36,1.34h-2.71c-.18-1.74,1.01-3.75,4.15-3.75,2.57,0,4.19,1.48,4.19,4.09v3.48c0,.41.2.69.73.57v2.13l-.47.08c-1.38.16-2.69-.47-2.86-1.74-.41,1.46-1.84,1.8-2.64,1.8-1.84,0-3.38-1.12-3.38-3.14ZM119.31,188.76c-.3-.47-.95-.77-1.6-.77-.77,0-1.5.34-1.5,1.15.02.87.99.97,1.38.99.67,0,1.66-.32,1.72-1.36Z"/>
    <path class="cls-1" d="M127.25,192.11h-3.14v-13.98h3.14v13.98Z"/>
    <path class="cls-1" d="M132.24,181.06h-3.34v-2.92h3.34v2.92ZM132.13,192.11h-3.1v-9.87h3.1v9.87Z"/>
    <path class="cls-1" d="M143.78,178.13v13.98h-2.69l-.2-1.66c-.32,1.05-1.44,1.92-2.92,1.92-2.84,0-4.36-2.33-4.36-5.29,0-2.51,1.48-5.07,4.32-5.07,1.5,0,2.57.93,2.76,1.62v-5.49h3.08ZM136.79,187.16c0,1.28.55,2.45,2.03,2.45,1.28,0,1.99-1.11,1.99-2.31v-.45c0-1.34-1.01-2.11-1.99-2.11-1.52,0-2.03,1.32-2.03,2.43Z"/>
    <path class="cls-1" d="M145.2,189.19c0-2.17,1.86-3,3.61-3,.87,0,1.64.24,2.09.69v-1.18c0-1.13-.83-1.36-1.34-1.36-.65,0-1.36.34-1.36,1.34h-2.71c-.18-1.74,1.01-3.75,4.15-3.75,2.57,0,4.19,1.48,4.19,4.09v3.48c0,.41.2.69.73.57v2.13l-.47.08c-1.38.16-2.68-.47-2.86-1.74-.42,1.46-1.84,1.8-2.65,1.8-1.84,0-3.38-1.12-3.38-3.14ZM151.08,188.76c-.3-.47-.95-.77-1.6-.77-.77,0-1.5.34-1.5,1.15.02.87.99.97,1.38.99.67,0,1.66-.32,1.72-1.36Z"/>
    <path class="cls-1" d="M165.65,178.13v13.98h-2.69l-.2-1.66c-.32,1.05-1.44,1.92-2.92,1.92-2.84,0-4.36-2.33-4.36-5.29,0-2.51,1.48-5.07,4.32-5.07,1.5,0,2.57.93,2.76,1.62v-5.49h3.08ZM158.66,187.16c0,1.28.55,2.45,2.03,2.45,1.28,0,1.99-1.11,1.99-2.31v-.45c0-1.34-1.01-2.11-1.99-2.11-1.52,0-2.03,1.32-2.03,2.43Z"/>
  </g>
</svg>