<?xml version="1.0" encoding="UTF-8"?>
<svg id="Capa_1" data-name="Capa 1" xmlns="http://www.w3.org/2000/svg" version="1.1" viewBox="0 0 100 100">
  <defs>
    <style>
      .cls-1 {
        fill: #122d80;
      }

      .cls-1, .cls-2, .cls-3 {
        stroke-width: 0px;
      }

      .cls-2, .cls-4 {
        fill: none;
      }

      .cls-4 {
        stroke: #253674;
        stroke-miterlimit: 10;
        stroke-width: 2.8px;
      }

      .cls-3 {
        fill: #e9ca4d;
      }
    </style>
  </defs>
  <circle class="cls-4" cx="50" cy="33.2" r="26.6"/>
  <g>
    <path class="cls-1" d="M33.2,77.7h2.3c1.3,0,2,.6,2,1.7s-.4,1.2-1.1,1.4c.8.3,1.2,1.2,1.2,2.5h-1.3c0-1.8-.8-2-1.3-2h-.4v2h-1.3v-5.5ZM35.4,80.2c.6,0,.7-.4.7-.6s-.1-.6-.7-.6h-.9v1.2h.9Z"/>
    <path class="cls-1" d="M42.2,81.2v.3h-2.8c0,.6.3,1,.8,1s.6,0,.7-.5h1.2c-.1,1-.9,1.5-1.9,1.5s-2.1-1-2.1-2.2.8-2.2,2.1-2.2c.9,0,2,.5,2,2.2ZM39.4,80.7h1.5c0-.4-.3-.7-.7-.7s-.7.3-.8.7Z"/>
    <path class="cls-1" d="M42.8,85v-5.9h1.1v.7c.2-.4.7-.8,1.3-.8,1.2,0,1.8,1,1.8,2.2s-.6,2.1-1.8,2.1-1.1-.4-1.2-.7v2.3h-1.3ZM45.8,81.2c0-.5-.2-1-.9-1s-.8.5-.8,1v.2c0,.6.4.9.8.9.6,0,.9-.6.9-1Z"/>
    <path class="cls-1" d="M47.7,81.2c0-1.3.9-2.2,2.2-2.2s2.2.9,2.2,2.2-.9,2.2-2.2,2.2-2.2-.9-2.2-2.2ZM50.8,81.2c0-.5-.2-1.1-.9-1.1s-.9.6-.9,1.1.3,1,.9,1,.9-.6.9-1Z"/>
    <path class="cls-1" d="M55.2,80.3c-.6,0-1.2,0-1.2.9v2h-1.3v-4.2h1.1v.8c.2-.6.7-.9,1.4-.9v1.3Z"/>
    <path class="cls-1" d="M58.3,82.2v1.1c-.1,0-.4,0-.6,0-1.1,0-1.8-.4-1.8-1.6v-1.6h-.6v-.7c.9-.3.9-1.2.9-1.3h1.2c0,.6-.1.9-.3,1h1.2v1h-1v1.4c0,.5.2.7.7.7s.3,0,.4,0Z"/>
    <path class="cls-1" d="M62.6,81.2v.3h-2.8c0,.6.3,1,.8,1s.6,0,.7-.5h1.2c-.1,1-.9,1.5-1.9,1.5s-2.1-1-2.1-2.2.8-2.2,2.1-2.2c.9,0,2,.5,2,2.2ZM59.9,80.7h1.5c0-.4-.3-.7-.7-.7s-.7.3-.8.7Z"/>
    <path class="cls-1" d="M63.1,81.8h1.2c0,.5.5.6.7.6s.5-.1.5-.4c0-.2-.2-.3-.7-.4-1.1-.2-1.6-.5-1.6-1.3s.7-1.3,1.7-1.3c1.3,0,1.8.8,1.8,1.6h-1.1c0-.5-.5-.6-.7-.6-.2,0-.6,0-.6.3s.3.3.7.4c1.2.2,1.7.6,1.7,1.4s-.7,1.3-1.7,1.3-2-.7-2-1.6Z"/>
    <path class="cls-1" d="M31.2,87.7h1.3v2.2h2.1v-2.2h1.3v5.5h-1.3v-2.1h-2.1v2.1h-1.3v-5.5Z"/>
    <path class="cls-1" d="M38.2,88.6h-1.4v-1.2h1.4v1.2ZM38.1,93.3h-1.3v-4.2h1.3v4.2Z"/>
    <path class="cls-1" d="M38.7,91.8h1.2c0,.5.5.6.7.6s.5-.1.5-.4c0-.2-.2-.3-.7-.4-1.1-.2-1.6-.5-1.6-1.3s.7-1.3,1.7-1.3c1.3,0,1.8.8,1.8,1.6h-1.1c0-.5-.5-.6-.7-.6-.2,0-.6,0-.6.3s.3.3.7.4c1.2.2,1.7.6,1.7,1.4s-.7,1.3-1.7,1.3-2-.7-2-1.6Z"/>
    <path class="cls-1" d="M45.7,92.2v1.1c-.1,0-.4,0-.6,0-1.1,0-1.8-.4-1.8-1.6v-1.6h-.6v-.7c.9-.3.9-1.2.9-1.3h1.2c0,.6-.1.9-.3,1h1.2v1h-1v1.4c0,.5.2.7.7.7s.3,0,.4,0Z"/>
    <path class="cls-1" d="M45.9,91.2c0-1.3.9-2.2,2.2-2.2s2.2.9,2.2,2.2-.9,2.2-2.2,2.2-2.2-.9-2.2-2.2ZM48.9,86.7l.6.8-2.2,1.2-.2-.3,1.8-1.6ZM49,91.2c0-.5-.2-1.1-.9-1.1s-.9.6-.9,1.1.3,1,.9,1,.9-.6.9-1Z"/>
    <path class="cls-1" d="M53.4,90.3c-.6,0-1.2,0-1.2.9v2h-1.3v-4.2h1.1v.8c.2-.6.7-.9,1.4-.9v1.3Z"/>
    <path class="cls-1" d="M55.2,88.6h-1.4v-1.2h1.4v1.2ZM55.2,93.3h-1.3v-4.2h1.3v4.2Z"/>
    <path class="cls-1" d="M55.8,91.2c0-1.2.7-2.2,2.1-2.2s1.9.6,1.9,1.6h-1.2c0-.5-.4-.6-.7-.6-.4,0-.8.3-.8,1.1s.5,1.1.8,1.1.6-.1.6-.5h1.2c0,1-.9,1.6-1.9,1.6-1.3,0-2.1-1-2.1-2.2Z"/>
    <path class="cls-1" d="M60.2,91.2c0-1.3.9-2.2,2.2-2.2s2.2.9,2.2,2.2-.9,2.2-2.2,2.2-2.2-.9-2.2-2.2ZM63.3,91.2c0-.5-.2-1.1-.9-1.1s-.9.6-.9,1.1.3,1,.9,1,.9-.6.9-1Z"/>
    <path class="cls-1" d="M65.1,91.8h1.2c0,.5.5.6.7.6s.5-.1.5-.4c0-.2-.2-.3-.7-.4-1.1-.2-1.6-.5-1.6-1.3s.7-1.3,1.7-1.3c1.3,0,1.8.8,1.8,1.6h-1.1c0-.5-.5-.6-.7-.6-.2,0-.6,0-.6.3s.3.3.7.4c1.2.2,1.7.6,1.7,1.4s-.7,1.3-1.7,1.3-2-.7-2-1.6Z"/>
  </g>
  <path class="cls-1" d="M67.7,22c0-1.2-.9-2.2-2.2-2.2-5.2,0-10.3,0-15.5,0h0c-5.2,0-10.4,0-15.6,0-1.3,0-2.1,1.1-2.1,2.1,0,6.7,0,13.4,0,20.1,0,1.3.8,2.1,2.1,2.1,3.9,0,7.9,0,11.8,0,0,0,.2,0,.3,0,0,0,.1,0,.1.1-.2.5-.6,1.3-1.3,1.3-.4,0-.7,0-1.1,0-.1,0-.2,0-.2.2,0,.2,0,.4,0,.6,0,.4,0,.4.4.4,2.8,0,5.5,0,8.3,0,1.1,0,2.2,0,3.2,0,.2,0,.3,0,.3-.3,0-.2,0-.5,0-.7,0-.2,0-.2-.2-.2-.3,0-.5,0-.8,0-.9,0-1.4-.4-1.7-1.2,0-.2,0-.2.1-.2,0,0,.2,0,.3,0,3.9,0,7.8,0,11.8,0,1.3,0,2.1-1,2.1-2.1,0-3.4,0-6.8,0-10.1,0-3.3,0-6.6,0-9.9ZM52.5,45.5c-1.1,0-2.2,0-3.4,0-.6,0-1.2,0-1.8,0,.3-.4.5-.8.6-1.2,0-.1.1-.2.3-.2,1.3,0,2.5,0,3.8,0,.2,0,.2,0,.3.2,0,.3.2.7.4,1,.1.2,0,.2-.1.2ZM66.5,41.9c0,.8-.3,1-1,1-8,0-16,0-24,0-2.4,0-4.7,0-7.1,0-.7,0-.9-.2-.9-.9,0-1,0-2,0-2.9,0-.3,0-.3.3-.3,5.4,0,10.8,0,16.2,0h0c5.4,0,10.8,0,16.2,0,.3,0,.3,0,.3.3,0,.9,0,1.9,0,2.8ZM35.9,24q0-.4.4-.4c4.6,0,9.1,0,13.7,0h0c4.6,0,9.1,0,13.7,0,.3,0,.4,0,.4.4,0,4.4,0,8.8,0,13.2q0,.4-.4.4c-9.1,0-18.2,0-27.3,0-.5,0-.4,0-.4-.4,0-4.4,0-8.8,0-13.2ZM66.2,37.6c-.2,0-.5,0-.7,0-.2,0-.3,0-.3-.3,0-.5,0-1,0-1.5,0-4.3,0-8.5,0-12.8,0-.5,0-.6-.6-.6-7.3,0-14.7,0-22,0-2.4,0-4.8,0-7.2,0,0,0-.2,0-.3,0-.3,0-.4.1-.4.4,0,.4,0,.9,0,1.3,0,4.3,0,8.7,0,13q0,.4-.4.4c-.2,0-.4,0-.6,0-.3,0-.4,0-.3-.3,0-2.1,0-4.2,0-6.3,0-2.9,0-5.7,0-8.6,0-1,.2-1.3,1.3-1.3,5.1,0,10.1,0,15.2,0h0c5.2,0,10.3,0,15.5,0,.7,0,1,.3,1,1,0,5.1,0,10.1,0,15.2,0,.2,0,.4-.3.3Z"/>
  <path class="cls-1" d="M64.3,40.5c0-.2,0-.3-.2-.3-.6,0-1.3,0-1.9,0-.2,0-.2,0-.2.2,0,.2,0,.5,0,.7,0,.2,0,.2.2.2.3,0,.7,0,1,0h0c.3,0,.6,0,1,0,.2,0,.3,0,.3-.3,0-.2,0-.4,0-.6Z"/>
  <path class="cls-1" d="M59.6,40.2s0,0-.1,0q-.5,0-.5.5t.7.7.6-.6-.6-.6Z"/>
  <path class="cls-1" d="M56.8,40.2q-.5,0-.5.5t.6.6.6-.5-.7-.7Z"/>
  <path class="cls-1" d="M49.1,40.2q-.6,0-.6.6t.6.6s0,0,0,0q.6,0,.6-.6t-.7-.6Z"/>
  <g>
    <circle class="cls-3" cx="64.4" cy="32.4" r="4.1"/>
    <path class="cls-2" d="M64.4,28.6c-2.1,0-3.8,1.7-3.8,3.8s1.7,3.8,3.8,3.8,3.8-1.7,3.8-3.8-1.7-3.8-3.8-3.8ZM62.6,33.8c0,0-.1,0-.2,0-.1,0-.1-.3,0-.4l2.7-3.4c0-.1.3-.1.4,0,.1,0,.1.3,0,.4l-2.7,3.4c0,0-.1,0-.2,0ZM66.6,31.5l-2.7,3.4c0,0-.1,0-.2,0s-.1,0-.2,0c-.1,0-.1-.3,0-.4l2.7-3.4c0-.1.3-.1.4,0,.1,0,.1.3,0,.4Z"/>
    <path class="cls-1" d="M72.1,38.9h0c0,0-1.4,1.3-1.4,1.3h0s.4.4.4.4c.2.2.7.1,1.1-.3.4-.4.5-.9.3-1.1l-.3-.3h0Z"/>
    <polygon class="cls-3" points="71.7 38.5 70.3 39.9 70.7 40.3 72.1 38.9 72 38.8 72 38.8 71.7 38.5"/>
    <path class="cls-1" d="M64.3,27c-3,0-5.4,2.4-5.4,5.4s2.4,5.4,5.4,5.4,2.1-.3,3-.9l3,3,1.4-1.4-3-3c.6-.9,1-2,1-3.2,0-3-2.4-5.4-5.4-5.4ZM64.4,36.3c-2.1,0-3.8-1.7-3.8-3.8s1.7-3.8,3.8-3.8,3.8,1.7,3.8,3.8-1.7,3.8-3.8,3.8Z"/>
    <path class="cls-1" d="M65,30.1l-2.7,3.4c0,.1,0,.3,0,.4,0,0,.1,0,.2,0s.2,0,.2,0l2.7-3.4c0-.1,0-.3,0-.4-.1,0-.3,0-.4,0Z"/>
    <path class="cls-1" d="M66.1,31.2l-2.7,3.4c0,.1,0,.3,0,.4,0,0,.1,0,.2,0s.2,0,.2,0l2.7-3.4c0-.1,0-.3,0-.4-.1,0-.3,0-.4,0Z"/>
  </g>
</svg>