<?xml version="1.0" encoding="UTF-8"?>
<svg id="Capa_1" data-name="Capa 1" xmlns="http://www.w3.org/2000/svg" version="1.1" viewBox="0 0 100 100">
  <defs>
    <style>
      .cls-1 {
        fill: #122d80;
      }

      .cls-1, .cls-2, .cls-3 {
        stroke-width: 0px;
      }

      .cls-2, .cls-4 {
        fill: none;
      }

      .cls-4 {
        stroke: #253674;
        stroke-miterlimit: 10;
        stroke-width: 2.8px;
      }

      .cls-3 {
        fill: #fff;
      }
    </style>
  </defs>
  <g>
    <circle class="cls-4" cx="50" cy="31.7" r="26.7"/>
    <g>
      <path class="cls-1" d="M36.1,81.3h1.3c0,.6.4.9,1,.9s.8-.3.8-.6c0-.5-.7-.5-1.3-.7-1.1-.3-1.7-.8-1.7-1.7s1-1.7,2.1-1.7c1.6,0,2.3,1,2.3,2h-1.3c0-.5-.4-.9-.9-.9s-.8.3-.8.5c0,.5.7.6,1.3.7.7.2,1.7.5,1.7,1.7s-.8,1.7-2.1,1.7-2.4-1-2.3-2Z"/>
      <path class="cls-1" d="M41.2,84.9v-5.9h1.1v.7c.2-.4.7-.8,1.3-.8,1.2,0,1.8,1,1.8,2.2s-.6,2.1-1.8,2.1-1.1-.4-1.2-.7v2.3h-1.3ZM44.2,81.1c0-.5-.2-1-.9-1s-.8.5-.8,1v.2c0,.6.4.9.8.9.6,0,.9-.6.9-1Z"/>
      <path class="cls-1" d="M50.2,81v.3h-2.8c0,.6.3,1,.8,1s.6,0,.7-.5h1.2c-.1,1-.9,1.5-1.9,1.5s-2.1-1-2.1-2.2.8-2.2,2.1-2.2c.9,0,2,.5,2,2.2ZM47.4,80.6h1.5c0-.4-.3-.7-.7-.7s-.7.3-.8.7Z"/>
      <path class="cls-1" d="M54.8,81v.3h-2.8c0,.6.3,1,.8,1s.6,0,.7-.5h1.2c-.1,1-.9,1.5-1.9,1.5s-2.1-1-2.1-2.2.8-2.2,2.1-2.2c.9,0,2,.5,2,2.2ZM52,80.6h1.5c0-.4-.3-.7-.7-.7s-.7.3-.8.7Z"/>
      <path class="cls-1" d="M55.3,81.1c0-1.2.7-2.2,2.1-2.2s1.9.6,1.9,1.6h-1.2c0-.5-.4-.6-.7-.6-.4,0-.8.3-.8,1.1s.5,1.1.8,1.1.6-.1.6-.5h1.2c0,1-.9,1.6-1.9,1.6-1.3,0-2.1-1-2.1-2.2Z"/>
      <path class="cls-1" d="M61,79.5c.2-.5.8-.7,1.2-.7.9,0,1.5.7,1.5,1.6v2.6h-1.3v-2.5c0-.5-.3-.7-.6-.7-.3,0-.7.2-.7.8v2.4h-1.3v-5.9h1.2v2.3Z"/>
      <path class="cls-1" d="M36.5,92.1h-2.2l-.3,1h-1.3l1.8-5.5h2l1.8,5.5h-1.3l-.3-1ZM36.1,91l-.8-2.5-.8,2.5h1.5Z"/>
      <path class="cls-1" d="M38.5,89h1.1v.7c.2-.5.8-.8,1.3-.8,1,0,1.5.7,1.5,1.6v2.6h-1.3v-2.5c0-.4-.2-.7-.6-.7s-.8.2-.8.8v2.3h-1.3v-4.2Z"/>
      <path class="cls-1" d="M43.1,91.9c0-.9.8-1.3,1.5-1.3s.7,0,.9.3v-.5c0-.5-.3-.6-.6-.6s-.6.1-.6.6h-1.1c0-.7.4-1.6,1.7-1.6s1.8.6,1.8,1.7v1.5c0,.2,0,.3.3.2v.9h-.2c-.6,0-1.1-.2-1.2-.7-.2.6-.8.8-1.1.8-.8,0-1.4-.5-1.4-1.3ZM45.5,91.7c-.1-.2-.4-.3-.7-.3s-.6.1-.6.5c0,.4.4.4.6.4.3,0,.7-.1.7-.6Z"/>
      <path class="cls-1" d="M48.9,93.2h-1.3v-5.9h1.3v5.9Z"/>
      <path class="cls-1" d="M50.7,89l.9,2.6.7-2.6h1.4l-1.8,4.8c-.4,1-.9,1.2-1.8,1.2h-.3v-1.2h.2c.5,0,.7,0,.9-.6v-.2c0,0-1.6-4.1-1.6-4.1h1.4Z"/>
      <path class="cls-1" d="M56.8,92.1v1.1c-.1,0-.4,0-.6,0-1.1,0-1.8-.4-1.8-1.6v-1.6h-.6v-.7c.9-.3.9-1.2.9-1.3h1.2c0,.6-.1.9-.3,1h1.2v1h-1v1.4c0,.5.2.7.7.7s.3,0,.4,0Z"/>
      <path class="cls-1" d="M58.6,88.5h-1.4v-1.2h1.4v1.2ZM58.5,93.2h-1.3v-4.2h1.3v4.2Z"/>
      <path class="cls-1" d="M59.2,91.1c0-1.2.7-2.2,2.1-2.2s1.9.6,1.9,1.6h-1.2c0-.5-.4-.6-.7-.6-.4,0-.8.3-.8,1.1s.5,1.1.8,1.1.6-.1.6-.5h1.2c0,1-.9,1.6-1.9,1.6-1.3,0-2.1-1-2.1-2.2Z"/>
      <path class="cls-1" d="M63.5,91.7h1.2c0,.5.5.6.7.6s.5-.1.5-.4c0-.2-.2-.3-.7-.4-1.1-.2-1.6-.5-1.6-1.3s.7-1.3,1.7-1.3c1.3,0,1.8.8,1.8,1.6h-1.1c0-.5-.5-.6-.7-.6-.2,0-.6,0-.6.3s.3.3.7.4c1.2.2,1.7.6,1.7,1.4s-.7,1.3-1.7,1.3-2-.7-2-1.6Z"/>
    </g>
  </g>
  <g>
    <path class="cls-2" d="M36.9,26.1c0,5.2,4.1,9.4,9.3,9.4,5.2,0,9.4-4.1,9.4-9.3,0-5.2-4.1-9.4-9.3-9.4-5.2,0-9.4,4.1-9.4,9.3ZM46.2,34.2c-4.4,0-8-3.6-7.9-8,0-4.4,3.3-8,7.7-7.9,0,0,.1,0,.2,0v8c0,0,7.1,3.9,7.1,3.9-1.1,2.3-4,4.1-7.1,4.1ZM48.7,26.4l-.7-.4.5-1.7,1.2-1.2-1,3.2ZM50.1,22.8l1.2-1.2-1.7,5.2-.7-.4,1.2-3.7ZM47.8,25.9l-.5-.3.9-.9-.4,1.2ZM54.3,25.8c0,1.2-.2,2.3-.7,3.3l-.4-.2,1.1-3.4c0,.1,0,.2,0,.4ZM54.3,24.9l-1.2,3.9-.7-.4,1.6-4.9c.2.5.3.9.3,1.4ZM53.8,23.2l-1.7,5.1-.7-.4,1.8-5.7c.2.3.3.6.5,1ZM53.2,21.9l-1.9,5.9-.7-.4,2-6.3c.2.2.4.5.5.8ZM52.2,20.7c0,0,.2.2.3.3l-2,6.4-.7-.4,1.8-5.7.6-.6ZM47.2,18.3c1.7,0,3.3.7,4.3,1.7l-4.4,4.5v-6.2Z"/>
    <path class="cls-1" d="M65,42.2h-.1c0-.1-3.4,3.2-3.4,3.2h0c0,0,.9,1,.9,1,.6.6,1.8.3,2.8-.6.9-.9,1.2-2.2.7-2.7l-.8-.9h0Z"/>
    <polygon class="cls-3" points="64.1 41.2 60.6 44.6 61.5 45.4 64.9 42.1 64.8 42 64.8 42 64.1 41.2"/>
    <path class="cls-1" d="M46.1,12.9c-7.3,0-13.3,5.8-13.4,13.2,0,7.3,5.8,13.3,13.2,13.4,2.7,0,5.2-.8,7.4-2.2l7.3,7.3,3.4-3.4-7.3-7.3c1.6-2.2,2.5-4.8,2.5-7.7,0-7.3-5.8-13.3-13.2-13.4ZM46.2,35.5c-5.2,0-9.3-4.2-9.3-9.4,0-5.2,4.3-9.3,9.4-9.3,5.2,0,9.3,4.2,9.3,9.4,0,5.2-4.2,9.3-9.4,9.3Z"/>
    <path class="cls-1" d="M51.5,20c-1.1-1-2.7-1.7-4.3-1.7v6.2c0,0,4.3-4.5,4.3-4.5Z"/>
    <path class="cls-1" d="M46,18.2c-4.4,0-7.7,3.5-7.7,7.9,0,4.4,3.5,8,7.9,8,3.1,0,6-1.8,7.1-4.1l-7.1-3.9v-8s0,0-.1,0Z"/>
    <polygon class="cls-1" points="49.6 26.9 51.2 21.7 50.1 22.8 48.9 26.5 49.6 26.9"/>
    <polygon class="cls-1" points="48.7 26.4 49.7 23.2 48.6 24.4 48 26.1 48.7 26.4"/>
    <path class="cls-1" d="M52.1,28.3l1.7-5.1c-.1-.3-.3-.7-.5-1l-1.8,5.7.7.4Z"/>
    <path class="cls-1" d="M53,28.8l1.2-3.9c0-.5-.2-.9-.3-1.4l-1.6,4.9.7.4Z"/>
    <path class="cls-1" d="M53.6,29.1c.5-1,.7-2.1.7-3.3,0-.1,0-.2,0-.4l-1.1,3.4.4.2Z"/>
    <path class="cls-1" d="M49.8,27l.7.4,2-6.4c0,0-.2-.2-.3-.3l-.6.6-1.8,5.7Z"/>
    <polygon class="cls-1" points="48.2 24.7 47.3 25.7 47.8 25.9 48.2 24.7"/>
    <path class="cls-1" d="M51.3,27.8l1.9-5.9c-.2-.3-.3-.5-.5-.8l-2,6.3.7.4Z"/>
  </g>
</svg>